<?xml version="1.0" encoding="UTF-8" standalone="no"?>
<!-- Created with Inkscape (http://www.inkscape.org/) -->

<svg
   xmlns:dc="http://purl.org/dc/elements/1.1/"
   xmlns:cc="http://creativecommons.org/ns#"
   xmlns:rdf="http://www.w3.org/1999/02/22-rdf-syntax-ns#"
   xmlns:svg="http://www.w3.org/2000/svg"
   xmlns="http://www.w3.org/2000/svg"
   xmlns:sodipodi="http://sodipodi.sourceforge.net/DTD/sodipodi-0.dtd"
   xmlns:inkscape="http://www.inkscape.org/namespaces/inkscape"
   width="640"
   height="64"
   id="svg2"
   version="1.1"
   inkscape:version="0.48.2 r9819"
   sodipodi:docname="sprites.svg">
  <defs
     id="defs4" />
  <sodipodi:namedview
     id="base"
     pagecolor="#ffffff"
     bordercolor="#666666"
     borderopacity="1.0"
     inkscape:pageopacity="0.0"
     inkscape:pageshadow="2"
     inkscape:zoom="2"
     inkscape:cx="87.273857"
     inkscape:cy="12.564971"
     inkscape:document-units="px"
     inkscape:current-layer="layer1"
     showgrid="true"
     inkscape:snap-global="false"
     inkscape:window-width="1192"
     inkscape:window-height="757"
     inkscape:window-x="63"
     inkscape:window-y="20"
     inkscape:window-maximized="0">
    <inkscape:grid
       type="xygrid"
       id="grid2985"
       empspacing="4"
       visible="true"
       enabled="true"
       snapvisiblegridlinesonly="true"
       spacingx="16px"
       spacingy="16px" />
  </sodipodi:namedview>
  <metadata
     id="metadata7">
    <rdf:RDF>
      <cc:Work
         rdf:about="">
        <dc:format>image/svg+xml</dc:format>
        <dc:type
           rdf:resource="http://purl.org/dc/dcmitype/StillImage" />
        <dc:title></dc:title>
      </cc:Work>
    </rdf:RDF>
  </metadata>
  <g
     inkscape:label="Layer 1"
     inkscape:groupmode="layer"
     id="layer1"
     transform="translate(0,-988.36218)">
    <path
       sodipodi:type="arc"
       style="fill:#ffdd55;stroke:#9a8c13;stroke-width:2;stroke-miterlimit:4;stroke-opacity:1;stroke-dasharray:none"
       id="path3825"
       sodipodi:cx="32"
       sodipodi:cy="32"
       sodipodi:rx="16"
       sodipodi:ry="16"
       d="m 48,32 a 16,16 0 1 1 -32,0 16,16 0 1 1 32,0 z"
       transform="matrix(0.94117646,0,0,-0.94117647,1.882353,1050.4798)" />
    <path
       transform="matrix(0.94117646,0,0,-0.94117647,65.882353,1050.4798)"
       d="m 48,32 a 16,16 0 1 1 -32,0 16,16 0 1 1 32,0 z"
       sodipodi:ry="16"
       sodipodi:rx="16"
       sodipodi:cy="32"
       sodipodi:cx="32"
       id="path4118"
       style="fill:#ffdd55;stroke:#9a8c13;stroke-width:2;stroke-miterlimit:4;stroke-opacity:1;stroke-dasharray:none"
       sodipodi:type="arc" />
    <path
       sodipodi:type="arc"
       style="fill:#ffdd55;stroke:#9a8c13;stroke-width:2;stroke-miterlimit:4;stroke-opacity:1;stroke-dasharray:none"
       id="path4120"
       sodipodi:cx="32"
       sodipodi:cy="32"
       sodipodi:rx="16"
       sodipodi:ry="16"
       d="m 48,32 a 16,16 0 1 1 -32,0 16,16 0 1 1 32,0 z"
       transform="matrix(0.94117646,0,0,-0.94117647,129.88235,1050.4798)" />
    <path
       transform="matrix(0.94117646,0,0,-0.94117647,193.88235,1050.4798)"
       d="m 48,32 a 16,16 0 1 1 -32,0 16,16 0 1 1 32,0 z"
       sodipodi:ry="16"
       sodipodi:rx="16"
       sodipodi:cy="32"
       sodipodi:cx="32"
       id="path4122"
       style="fill:#ffdd55;stroke:#9a8c13;stroke-width:2;stroke-miterlimit:4;stroke-opacity:1;stroke-dasharray:none"
       sodipodi:type="arc" />
    <path
       sodipodi:type="arc"
       style="fill:#ffdd55;stroke:#9a8c13;stroke-width:2;stroke-miterlimit:4;stroke-opacity:1;stroke-dasharray:none"
       id="path4124"
       sodipodi:cx="32"
       sodipodi:cy="32"
       sodipodi:rx="16"
       sodipodi:ry="16"
       d="m 48,32 a 16,16 0 1 1 -32,0 16,16 0 1 1 32,0 z"
       transform="matrix(0.94117646,0,0,-0.94117647,257.88235,1050.4798)" />
    <path
       transform="matrix(0.94117646,0,0,-0.94117647,321.88235,1050.4798)"
       d="m 48,32 a 16,16 0 1 1 -32,0 16,16 0 1 1 32,0 z"
       sodipodi:ry="16"
       sodipodi:rx="16"
       sodipodi:cy="32"
       sodipodi:cx="32"
       id="path4126"
       style="fill:#ffdd55;stroke:#9a8c13;stroke-width:2;stroke-miterlimit:4;stroke-opacity:1;stroke-dasharray:none"
       sodipodi:type="arc" />
    <path
       sodipodi:type="arc"
       style="fill:#ffdd55;stroke:#9a8c13;stroke-width:2;stroke-miterlimit:4;stroke-opacity:1;stroke-dasharray:none"
       id="path4128"
       sodipodi:cx="32"
       sodipodi:cy="32"
       sodipodi:rx="16"
       sodipodi:ry="16"
       d="m 48,32 a 16,16 0 1 1 -32,0 16,16 0 1 1 32,0 z"
       transform="matrix(0.94117646,0,0,-0.94117647,385.88235,1050.4798)" />
    <path
       transform="matrix(0.94117646,0,0,-0.94117647,449.88235,1050.4798)"
       d="m 48,32 a 16,16 0 1 1 -32,0 16,16 0 1 1 32,0 z"
       sodipodi:ry="16"
       sodipodi:rx="16"
       sodipodi:cy="32"
       sodipodi:cx="32"
       id="path4130"
       style="fill:#ffdd55;stroke:#9a8c13;stroke-width:2;stroke-miterlimit:4;stroke-opacity:1;stroke-dasharray:none"
       sodipodi:type="arc" />
    <path
       sodipodi:type="arc"
       style="fill:#ffdd55;stroke:#9a8c13;stroke-width:2;stroke-miterlimit:4;stroke-opacity:1;stroke-dasharray:none"
       id="path4132"
       sodipodi:cx="32"
       sodipodi:cy="32"
       sodipodi:rx="16"
       sodipodi:ry="16"
       d="m 48,32 a 16,16 0 1 1 -32,0 16,16 0 1 1 32,0 z"
       transform="matrix(0.94117646,0,0,-0.94117647,513.88235,1050.4798)" />
    <path
       transform="matrix(0.94117646,0,0,-0.94117647,577.88235,1050.4798)"
       d="m 48,32 a 16,16 0 1 1 -32,0 16,16 0 1 1 32,0 z"
       sodipodi:ry="16"
       sodipodi:rx="16"
       sodipodi:cy="32"
       sodipodi:cx="32"
       id="path4134"
       style="fill:#ffdd55;stroke:#9a8c13;stroke-width:2;stroke-miterlimit:4;stroke-opacity:1;stroke-dasharray:none"
       sodipodi:type="arc" />
    <g
       id="g4148">
      <path
         transform="translate(0.35355339,989.42284)"
         d="m 20.152543,28.644661 a 4.5961943,4.5961943 0 1 1 -9.192388,0 4.5961943,4.5961943 0 1 1 9.192388,0 z"
         sodipodi:ry="4.5961943"
         sodipodi:rx="4.5961943"
         sodipodi:cy="28.644661"
         sodipodi:cx="15.556349"
         id="path4138"
         style="fill:#000000;fill-opacity:1;stroke:none"
         sodipodi:type="arc" />
      <path
         sodipodi:type="arc"
         style="fill:#000000;fill-opacity:1;stroke:none"
         id="path4140"
         sodipodi:cx="15.556349"
         sodipodi:cy="28.644661"
         sodipodi:rx="4.5961943"
         sodipodi:ry="4.5961943"
         d="m 20.152543,28.644661 a 4.5961943,4.5961943 0 1 1 -9.192388,0 4.5961943,4.5961943 0 1 1 9.192388,0 z"
         transform="translate(2.4748737,982.70533)" />
      <path
         transform="translate(8.131728,980.23046)"
         d="m 20.152543,28.644661 a 4.5961943,4.5961943 0 1 1 -9.192388,0 4.5961943,4.5961943 0 1 1 9.192388,0 z"
         sodipodi:ry="4.5961943"
         sodipodi:rx="4.5961943"
         sodipodi:cy="28.644661"
         sodipodi:cx="15.556349"
         id="path4142"
         style="fill:#000000;fill-opacity:1;stroke:none"
         sodipodi:type="arc" />
      <path
         sodipodi:type="arc"
         style="fill:#000000;fill-opacity:1;stroke:none"
         id="path4144"
         sodipodi:cx="15.556349"
         sodipodi:cy="28.644661"
         sodipodi:rx="4.5961943"
         sodipodi:ry="4.5961943"
         d="m 20.152543,28.644661 a 4.5961943,4.5961943 0 1 1 -9.192388,0 4.5961943,4.5961943 0 1 1 9.192388,0 z"
         transform="translate(5.3033009,985.53376)" />
      <path
         transform="translate(3.5355339,991.19061)"
         d="m 20.152543,28.644661 a 4.5961943,4.5961943 0 1 1 -9.192388,0 4.5961943,4.5961943 0 1 1 9.192388,0 z"
         sodipodi:ry="4.5961943"
         sodipodi:rx="4.5961943"
         sodipodi:cy="28.644661"
         sodipodi:cx="15.556349"
         id="path4146"
         style="fill:#000000;fill-opacity:1;stroke:none"
         sodipodi:type="arc" />
    </g>
    <g
       id="g4155"
       transform="matrix(-1,0,0,1,63.993163,3.3531978e-7)">
      <path
         sodipodi:type="arc"
         style="fill:#000000;fill-opacity:1;stroke:none"
         id="path4157"
         sodipodi:cx="15.556349"
         sodipodi:cy="28.644661"
         sodipodi:rx="4.5961943"
         sodipodi:ry="4.5961943"
         d="m 20.152543,28.644661 c 0,2.538408 -2.057786,4.596194 -4.596194,4.596194 -2.538408,0 -4.596194,-2.057786 -4.596194,-4.596194 0,-2.538408 2.057786,-4.596194 4.596194,-4.596194 2.538408,0 4.596194,2.057786 4.596194,4.596194 z"
         transform="translate(0.35355339,989.42284)" />
      <path
         transform="translate(2.4748737,982.70533)"
         d="m 20.152543,28.644661 c 0,2.538408 -2.057786,4.596194 -4.596194,4.596194 -2.538408,0 -4.596194,-2.057786 -4.596194,-4.596194 0,-2.538408 2.057786,-4.596194 4.596194,-4.596194 2.538408,0 4.596194,2.057786 4.596194,4.596194 z"
         sodipodi:ry="4.5961943"
         sodipodi:rx="4.5961943"
         sodipodi:cy="28.644661"
         sodipodi:cx="15.556349"
         id="path4159"
         style="fill:#000000;fill-opacity:1;stroke:none"
         sodipodi:type="arc" />
      <path
         sodipodi:type="arc"
         style="fill:#000000;fill-opacity:1;stroke:none"
         id="path4161"
         sodipodi:cx="15.556349"
         sodipodi:cy="28.644661"
         sodipodi:rx="4.5961943"
         sodipodi:ry="4.5961943"
         d="m 20.152543,28.644661 c 0,2.538408 -2.057786,4.596194 -4.596194,4.596194 -2.538408,0 -4.596194,-2.057786 -4.596194,-4.596194 0,-2.538408 2.057786,-4.596194 4.596194,-4.596194 2.538408,0 4.596194,2.057786 4.596194,4.596194 z"
         transform="translate(8.131728,980.23046)" />
      <path
         transform="translate(5.3033009,985.53376)"
         d="m 20.152543,28.644661 c 0,2.538408 -2.057786,4.596194 -4.596194,4.596194 -2.538408,0 -4.596194,-2.057786 -4.596194,-4.596194 0,-2.538408 2.057786,-4.596194 4.596194,-4.596194 2.538408,0 4.596194,2.057786 4.596194,4.596194 z"
         sodipodi:ry="4.5961943"
         sodipodi:rx="4.5961943"
         sodipodi:cy="28.644661"
         sodipodi:cx="15.556349"
         id="path4163"
         style="fill:#000000;fill-opacity:1;stroke:none"
         sodipodi:type="arc" />
      <path
         sodipodi:type="arc"
         style="fill:#000000;fill-opacity:1;stroke:none"
         id="path4165"
         sodipodi:cx="15.556349"
         sodipodi:cy="28.644661"
         sodipodi:rx="4.5961943"
         sodipodi:ry="4.5961943"
         d="m 20.152543,28.644661 c 0,2.538408 -2.057786,4.596194 -4.596194,4.596194 -2.538408,0 -4.596194,-2.057786 -4.596194,-4.596194 0,-2.538408 2.057786,-4.596194 4.596194,-4.596194 2.538408,0 4.596194,2.057786 4.596194,4.596194 z"
         transform="translate(3.5355339,991.19061)" />
    </g>
    <path
       sodipodi:type="arc"
       style="fill:#000000;fill-opacity:1;stroke:none"
       id="path4167"
       sodipodi:cx="27.753941"
       sodipodi:cy="29.528543"
       sodipodi:rx="1.2374369"
       sodipodi:ry="1.2374369"
       d="m 28.991377,29.528543 a 1.2374369,1.2374369 0 1 1 -2.474873,0 1.2374369,1.2374369 0 1 1 2.474873,0 z"
       transform="translate(0,988.36218)" />
    <path
       transform="translate(8.131728,988.36218)"
       d="m 28.991377,29.528543 a 1.2374369,1.2374369 0 1 1 -2.474873,0 1.2374369,1.2374369 0 1 1 2.474873,0 z"
       sodipodi:ry="1.2374369"
       sodipodi:rx="1.2374369"
       sodipodi:cy="29.528543"
       sodipodi:cx="27.753941"
       id="path4169"
       style="fill:#000000;fill-opacity:1;stroke:none"
       sodipodi:type="arc" />
    <rect
       style="fill:#000000;fill-opacity:1;stroke:none"
       id="rect4171"
       width="11.313708"
       height="1.4142135"
       x="26.162951"
       y="38.190601"
       transform="translate(0,988.36218)" />
    <rect
       style="fill:#000000;fill-opacity:1;stroke:none"
       id="rect4203"
       width="7.4246211"
       height="1.767767"
       x="86.974136"
       y="28.644661"
       transform="translate(0,988.36218)" />
    <g
       id="g4173"
       transform="translate(64.000292,2.3208683e-4)">
      <path
         sodipodi:type="arc"
         style="fill:#000000;fill-opacity:1;stroke:none"
         id="path4175"
         sodipodi:cx="15.556349"
         sodipodi:cy="28.644661"
         sodipodi:rx="4.5961943"
         sodipodi:ry="4.5961943"
         d="m 20.152543,28.644661 c 0,2.538408 -2.057786,4.596194 -4.596194,4.596194 -2.538408,0 -4.596194,-2.057786 -4.596194,-4.596194 0,-2.538408 2.057786,-4.596194 4.596194,-4.596194 2.538408,0 4.596194,2.057786 4.596194,4.596194 z"
         transform="translate(0.35355339,989.42284)" />
      <path
         transform="translate(2.4748737,982.70533)"
         d="m 20.152543,28.644661 c 0,2.538408 -2.057786,4.596194 -4.596194,4.596194 -2.538408,0 -4.596194,-2.057786 -4.596194,-4.596194 0,-2.538408 2.057786,-4.596194 4.596194,-4.596194 2.538408,0 4.596194,2.057786 4.596194,4.596194 z"
         sodipodi:ry="4.5961943"
         sodipodi:rx="4.5961943"
         sodipodi:cy="28.644661"
         sodipodi:cx="15.556349"
         id="path4177"
         style="fill:#000000;fill-opacity:1;stroke:none"
         sodipodi:type="arc" />
      <path
         sodipodi:type="arc"
         style="fill:#000000;fill-opacity:1;stroke:none"
         id="path4179"
         sodipodi:cx="15.556349"
         sodipodi:cy="28.644661"
         sodipodi:rx="4.5961943"
         sodipodi:ry="4.5961943"
         d="m 20.152543,28.644661 c 0,2.538408 -2.057786,4.596194 -4.596194,4.596194 -2.538408,0 -4.596194,-2.057786 -4.596194,-4.596194 0,-2.538408 2.057786,-4.596194 4.596194,-4.596194 2.538408,0 4.596194,2.057786 4.596194,4.596194 z"
         transform="translate(8.131728,980.23046)" />
      <path
         transform="translate(5.3033009,985.53376)"
         d="m 20.152543,28.644661 c 0,2.538408 -2.057786,4.596194 -4.596194,4.596194 -2.538408,0 -4.596194,-2.057786 -4.596194,-4.596194 0,-2.538408 2.057786,-4.596194 4.596194,-4.596194 2.538408,0 4.596194,2.057786 4.596194,4.596194 z"
         sodipodi:ry="4.5961943"
         sodipodi:rx="4.5961943"
         sodipodi:cy="28.644661"
         sodipodi:cx="15.556349"
         id="path4181"
         style="fill:#000000;fill-opacity:1;stroke:none"
         sodipodi:type="arc" />
      <path
         sodipodi:type="arc"
         style="fill:#000000;fill-opacity:1;stroke:none"
         id="path4183"
         sodipodi:cx="15.556349"
         sodipodi:cy="28.644661"
         sodipodi:rx="4.5961943"
         sodipodi:ry="4.5961943"
         d="m 20.152543,28.644661 c 0,2.538408 -2.057786,4.596194 -4.596194,4.596194 -2.538408,0 -4.596194,-2.057786 -4.596194,-4.596194 0,-2.538408 2.057786,-4.596194 4.596194,-4.596194 2.538408,0 4.596194,2.057786 4.596194,4.596194 z"
         transform="translate(3.5355339,991.19061)" />
    </g>
    <g
       transform="matrix(-1,0,0,1,127.99346,2.3242215e-4)"
       id="g4185">
      <path
         transform="translate(0.35355339,989.42284)"
         d="m 20.152543,28.644661 c 0,2.538408 -2.057786,4.596194 -4.596194,4.596194 -2.538408,0 -4.596194,-2.057786 -4.596194,-4.596194 0,-2.538408 2.057786,-4.596194 4.596194,-4.596194 2.538408,0 4.596194,2.057786 4.596194,4.596194 z"
         sodipodi:ry="4.5961943"
         sodipodi:rx="4.5961943"
         sodipodi:cy="28.644661"
         sodipodi:cx="15.556349"
         id="path4187"
         style="fill:#000000;fill-opacity:1;stroke:none"
         sodipodi:type="arc" />
      <path
         sodipodi:type="arc"
         style="fill:#000000;fill-opacity:1;stroke:none"
         id="path4189"
         sodipodi:cx="15.556349"
         sodipodi:cy="28.644661"
         sodipodi:rx="4.5961943"
         sodipodi:ry="4.5961943"
         d="m 20.152543,28.644661 c 0,2.538408 -2.057786,4.596194 -4.596194,4.596194 -2.538408,0 -4.596194,-2.057786 -4.596194,-4.596194 0,-2.538408 2.057786,-4.596194 4.596194,-4.596194 2.538408,0 4.596194,2.057786 4.596194,4.596194 z"
         transform="translate(2.4748737,982.70533)" />
      <path
         transform="translate(8.131728,980.23046)"
         d="m 20.152543,28.644661 c 0,2.538408 -2.057786,4.596194 -4.596194,4.596194 -2.538408,0 -4.596194,-2.057786 -4.596194,-4.596194 0,-2.538408 2.057786,-4.596194 4.596194,-4.596194 2.538408,0 4.596194,2.057786 4.596194,4.596194 z"
         sodipodi:ry="4.5961943"
         sodipodi:rx="4.5961943"
         sodipodi:cy="28.644661"
         sodipodi:cx="15.556349"
         id="path4191"
         style="fill:#000000;fill-opacity:1;stroke:none"
         sodipodi:type="arc" />
      <path
         sodipodi:type="arc"
         style="fill:#000000;fill-opacity:1;stroke:none"
         id="path4193"
         sodipodi:cx="15.556349"
         sodipodi:cy="28.644661"
         sodipodi:rx="4.5961943"
         sodipodi:ry="4.5961943"
         d="m 20.152543,28.644661 c 0,2.538408 -2.057786,4.596194 -4.596194,4.596194 -2.538408,0 -4.596194,-2.057786 -4.596194,-4.596194 0,-2.538408 2.057786,-4.596194 4.596194,-4.596194 2.538408,0 4.596194,2.057786 4.596194,4.596194 z"
         transform="translate(5.3033009,985.53376)" />
      <path
         transform="translate(3.5355339,991.19061)"
         d="m 20.152543,28.644661 c 0,2.538408 -2.057786,4.596194 -4.596194,4.596194 -2.538408,0 -4.596194,-2.057786 -4.596194,-4.596194 0,-2.538408 2.057786,-4.596194 4.596194,-4.596194 2.538408,0 4.596194,2.057786 4.596194,4.596194 z"
         sodipodi:ry="4.5961943"
         sodipodi:rx="4.5961943"
         sodipodi:cy="28.644661"
         sodipodi:cx="15.556349"
         id="path4195"
         style="fill:#000000;fill-opacity:1;stroke:none"
         sodipodi:type="arc" />
    </g>
    <rect
       y="1017.0068"
       x="97.227188"
       height="1.767767"
       width="7.4246211"
       id="rect4205"
       style="fill:#000000;fill-opacity:1;stroke:none" />
    <rect
       y="1026.553"
       x="90.163246"
       height="1.4142135"
       width="11.313708"
       id="rect4201"
       style="fill:#000000;fill-opacity:1;stroke:none" />
  </g>
</svg>
