<?xml version="1.0" encoding="UTF-8" standalone="no"?>
<!-- Created with Inkscape (http://www.inkscape.org/) -->

<svg
   xmlns:dc="http://purl.org/dc/elements/1.1/"
   xmlns:cc="http://creativecommons.org/ns#"
   xmlns:rdf="http://www.w3.org/1999/02/22-rdf-syntax-ns#"
   xmlns:svg="http://www.w3.org/2000/svg"
   xmlns="http://www.w3.org/2000/svg"
   xmlns:sodipodi="http://sodipodi.sourceforge.net/DTD/sodipodi-0.dtd"
   xmlns:inkscape="http://www.inkscape.org/namespaces/inkscape"
   width="640"
   height="320"
   id="svg2"
   version="1.1"
   inkscape:version="0.48.2 r9819"
   sodipodi:docname="sprites.svg">
  <defs
     id="defs4" />
  <sodipodi:namedview
     id="base"
     pagecolor="#ffffff"
     bordercolor="#666666"
     borderopacity="1.0"
     inkscape:pageopacity="0.0"
     inkscape:pageshadow="2"
     inkscape:zoom="5.6568542"
     inkscape:cx="41.85992"
     inkscape:cy="40.41895"
     inkscape:document-units="px"
     inkscape:current-layer="layer1"
     showgrid="true"
     inkscape:snap-global="false"
     inkscape:window-width="1192"
     inkscape:window-height="757"
     inkscape:window-x="19"
     inkscape:window-y="22"
     inkscape:window-maximized="0"
     showguides="true"
     inkscape:guide-bbox="true">
    <inkscape:grid
       type="xygrid"
       id="grid2985"
       empspacing="4"
       visible="true"
       enabled="true"
       snapvisiblegridlinesonly="true"
       spacingx="16px"
       spacingy="16px" />
    <sodipodi:guide
       orientation="1,0"
       position="-54,256"
       id="guide7631" />
  </sodipodi:namedview>
  <metadata
     id="metadata7">
    <rdf:RDF>
      <cc:Work
         rdf:about="">
        <dc:format>image/svg+xml</dc:format>
        <dc:type
           rdf:resource="http://purl.org/dc/dcmitype/StillImage" />
        <dc:title />
      </cc:Work>
    </rdf:RDF>
  </metadata>
  <g
     inkscape:label="Layer 1"
     inkscape:groupmode="layer"
     id="layer1"
     transform="translate(0,-732.36218)">
    <g
       id="g3368">
      <path
         style="fill:#ffffff;fill-opacity:0.53333309;stroke:#313079;stroke-width:1.97694433;stroke-miterlimit:4;stroke-opacity:1"
         d="m 369.37244,764.6869 c 0,-7.9455 -7.78422,-14.3865 -17.38653,-14.3865 -9.60232,0 -17.38653,6.441 -17.38653,14.3865 0,2.6268 0.85084,5.0893 2.33692,7.2088 0.82024,1.1699 0.86491,6.28 -5.01644,12.9342 -0.54928,0.6214 2.52851,-1.814 5.68147,-4.0827 2.67317,-1.9234 5.40037,-3.7271 6.01699,-3.4464 2.48239,1.1299 5.33428,1.7726 8.36759,1.7726 9.60231,0 17.38653,-6.441 17.38653,-14.3865 z"
         id="path4345"
         inkscape:connector-curvature="0"
         sodipodi:nodetypes="sssssssss" />
    </g>
    <g
       id="g3310">
      <path
         transform="matrix(0.94117646,0,0,-0.94117647,65.882353,794.4798)"
         d="m 48,32 c 0,8.836556 -7.163444,16 -16,16 -8.836556,0 -16,-7.163444 -16,-16 0,-8.836556 7.163444,-16 16,-16 8.836556,0 16,7.163444 16,16 z"
         sodipodi:ry="16"
         sodipodi:rx="16"
         sodipodi:cy="32"
         sodipodi:cx="32"
         id="path4337"
         style="fill:#ffdd55;stroke:#9a8c13;stroke-width:2;stroke-miterlimit:4;stroke-opacity:1;stroke-dasharray:none"
         sodipodi:type="arc" />
      <g
         id="g4361"
         transform="translate(63.5,-258)">
        <path
           sodipodi:type="arc"
           style="fill:#000000;fill-opacity:1;stroke:none"
           id="path4363"
           sodipodi:cx="15.556349"
           sodipodi:cy="28.644661"
           sodipodi:rx="4.5961943"
           sodipodi:ry="4.5961943"
           d="m 20.152543,28.644661 c 0,2.538408 -2.057786,4.596194 -4.596194,4.596194 -2.538408,0 -4.596194,-2.057786 -4.596194,-4.596194 0,-2.538408 2.057786,-4.596194 4.596194,-4.596194 2.538408,0 4.596194,2.057786 4.596194,4.596194 z"
           transform="translate(0.35355339,989.42284)" />
        <path
           transform="translate(2.4748737,982.70533)"
           d="m 20.152543,28.644661 c 0,2.538408 -2.057786,4.596194 -4.596194,4.596194 -2.538408,0 -4.596194,-2.057786 -4.596194,-4.596194 0,-2.538408 2.057786,-4.596194 4.596194,-4.596194 2.538408,0 4.596194,2.057786 4.596194,4.596194 z"
           sodipodi:ry="4.5961943"
           sodipodi:rx="4.5961943"
           sodipodi:cy="28.644661"
           sodipodi:cx="15.556349"
           id="path4365"
           style="fill:#000000;fill-opacity:1;stroke:none"
           sodipodi:type="arc" />
        <path
           sodipodi:type="arc"
           style="fill:#000000;fill-opacity:1;stroke:none"
           id="path4367"
           sodipodi:cx="15.556349"
           sodipodi:cy="28.644661"
           sodipodi:rx="4.5961943"
           sodipodi:ry="4.5961943"
           d="m 20.152543,28.644661 c 0,2.538408 -2.057786,4.596194 -4.596194,4.596194 -2.538408,0 -4.596194,-2.057786 -4.596194,-4.596194 0,-2.538408 2.057786,-4.596194 4.596194,-4.596194 2.538408,0 4.596194,2.057786 4.596194,4.596194 z"
           transform="translate(8.131728,980.23046)" />
        <path
           transform="translate(5.3033009,985.53376)"
           d="m 20.152543,28.644661 c 0,2.538408 -2.057786,4.596194 -4.596194,4.596194 -2.538408,0 -4.596194,-2.057786 -4.596194,-4.596194 0,-2.538408 2.057786,-4.596194 4.596194,-4.596194 2.538408,0 4.596194,2.057786 4.596194,4.596194 z"
           sodipodi:ry="4.5961943"
           sodipodi:rx="4.5961943"
           sodipodi:cy="28.644661"
           sodipodi:cx="15.556349"
           id="path4369"
           style="fill:#000000;fill-opacity:1;stroke:none"
           sodipodi:type="arc" />
        <path
           sodipodi:type="arc"
           style="fill:#000000;fill-opacity:1;stroke:none"
           id="path4371"
           sodipodi:cx="15.556349"
           sodipodi:cy="28.644661"
           sodipodi:rx="4.5961943"
           sodipodi:ry="4.5961943"
           d="m 20.152543,28.644661 c 0,2.538408 -2.057786,4.596194 -4.596194,4.596194 -2.538408,0 -4.596194,-2.057786 -4.596194,-4.596194 0,-2.538408 2.057786,-4.596194 4.596194,-4.596194 2.538408,0 4.596194,2.057786 4.596194,4.596194 z"
           transform="translate(3.5355339,991.19061)" />
      </g>
      <g
         transform="matrix(-1,0,0,1,127.49316,-258)"
         id="g4373">
        <path
           transform="translate(0.35355339,989.42284)"
           d="m 20.152543,28.644661 c 0,2.538408 -2.057786,4.596194 -4.596194,4.596194 -2.538408,0 -4.596194,-2.057786 -4.596194,-4.596194 0,-2.538408 2.057786,-4.596194 4.596194,-4.596194 2.538408,0 4.596194,2.057786 4.596194,4.596194 z"
           sodipodi:ry="4.5961943"
           sodipodi:rx="4.5961943"
           sodipodi:cy="28.644661"
           sodipodi:cx="15.556349"
           id="path4375"
           style="fill:#000000;fill-opacity:1;stroke:none"
           sodipodi:type="arc" />
        <path
           sodipodi:type="arc"
           style="fill:#000000;fill-opacity:1;stroke:none"
           id="path4377"
           sodipodi:cx="15.556349"
           sodipodi:cy="28.644661"
           sodipodi:rx="4.5961943"
           sodipodi:ry="4.5961943"
           d="m 20.152543,28.644661 c 0,2.538408 -2.057786,4.596194 -4.596194,4.596194 -2.538408,0 -4.596194,-2.057786 -4.596194,-4.596194 0,-2.538408 2.057786,-4.596194 4.596194,-4.596194 2.538408,0 4.596194,2.057786 4.596194,4.596194 z"
           transform="translate(2.4748737,982.70533)" />
        <path
           transform="translate(8.131728,980.23046)"
           d="m 20.152543,28.644661 c 0,2.538408 -2.057786,4.596194 -4.596194,4.596194 -2.538408,0 -4.596194,-2.057786 -4.596194,-4.596194 0,-2.538408 2.057786,-4.596194 4.596194,-4.596194 2.538408,0 4.596194,2.057786 4.596194,4.596194 z"
           sodipodi:ry="4.5961943"
           sodipodi:rx="4.5961943"
           sodipodi:cy="28.644661"
           sodipodi:cx="15.556349"
           id="path4379"
           style="fill:#000000;fill-opacity:1;stroke:none"
           sodipodi:type="arc" />
        <path
           sodipodi:type="arc"
           style="fill:#000000;fill-opacity:1;stroke:none"
           id="path4381"
           sodipodi:cx="15.556349"
           sodipodi:cy="28.644661"
           sodipodi:rx="4.5961943"
           sodipodi:ry="4.5961943"
           d="m 20.152543,28.644661 c 0,2.538408 -2.057786,4.596194 -4.596194,4.596194 -2.538408,0 -4.596194,-2.057786 -4.596194,-4.596194 0,-2.538408 2.057786,-4.596194 4.596194,-4.596194 2.538408,0 4.596194,2.057786 4.596194,4.596194 z"
           transform="translate(5.3033009,985.53376)" />
        <path
           transform="translate(3.5355339,991.19061)"
           d="m 20.152543,28.644661 c 0,2.538408 -2.057786,4.596194 -4.596194,4.596194 -2.538408,0 -4.596194,-2.057786 -4.596194,-4.596194 0,-2.538408 2.057786,-4.596194 4.596194,-4.596194 2.538408,0 4.596194,2.057786 4.596194,4.596194 z"
           sodipodi:ry="4.5961943"
           sodipodi:rx="4.5961943"
           sodipodi:cy="28.644661"
           sodipodi:cx="15.556349"
           id="path4383"
           style="fill:#000000;fill-opacity:1;stroke:none"
           sodipodi:type="arc" />
      </g>
      <path
         transform="translate(63.5,730.36218)"
         d="m 28.991377,29.528543 c 0,0.683418 -0.554019,1.237437 -1.237436,1.237437 -0.683418,0 -1.237437,-0.554019 -1.237437,-1.237437 0,-0.683417 0.554019,-1.237436 1.237437,-1.237436 0.683417,0 1.237436,0.554019 1.237436,1.237436 z"
         sodipodi:ry="1.2374369"
         sodipodi:rx="1.2374369"
         sodipodi:cy="29.528543"
         sodipodi:cx="27.753941"
         id="path4385"
         style="fill:#000000;fill-opacity:1;stroke:none"
         sodipodi:type="arc" />
      <path
         sodipodi:type="arc"
         style="fill:#000000;fill-opacity:1;stroke:none"
         id="path4387"
         sodipodi:cx="27.753941"
         sodipodi:cy="29.528543"
         sodipodi:rx="1.2374369"
         sodipodi:ry="1.2374369"
         d="m 28.991377,29.528543 c 0,0.683418 -0.554019,1.237437 -1.237436,1.237437 -0.683418,0 -1.237437,-0.554019 -1.237437,-1.237437 0,-0.683417 0.554019,-1.237436 1.237437,-1.237436 0.683417,0 1.237436,0.554019 1.237436,1.237436 z"
         transform="translate(71.631728,730.36218)" />
      <rect
         y="768.55273"
         x="89.662949"
         height="1.4142135"
         width="11.313708"
         id="rect4389"
         style="fill:#000000;fill-opacity:1;stroke:none" />
    </g>
    <g
       id="g3302">
      <path
         sodipodi:type="arc"
         style="fill:#ffdd55;stroke:#9a8c13;stroke-width:2;stroke-miterlimit:4;stroke-opacity:1;stroke-dasharray:none"
         id="path4335"
         sodipodi:cx="32"
         sodipodi:cy="32"
         sodipodi:rx="16"
         sodipodi:ry="16"
         d="m 48,32 c 0,8.836556 -7.163444,16 -16,16 -8.836556,0 -16,-7.163444 -16,-16 0,-8.836556 7.163444,-16 16,-16 8.836556,0 16,7.163444 16,16 z"
         transform="matrix(0.94117646,0,0,-0.94117647,1.882353,794.4798)" />
      <path
         sodipodi:type="arc"
         style="fill:#000000;fill-opacity:1;stroke:none"
         id="path4353"
         sodipodi:cx="27.753941"
         sodipodi:cy="29.528543"
         sodipodi:rx="1.2374369"
         sodipodi:ry="1.2374369"
         d="m 28.991377,29.528543 c 0,0.683418 -0.554019,1.237437 -1.237436,1.237437 -0.683418,0 -1.237437,-0.554019 -1.237437,-1.237437 0,-0.683417 0.554019,-1.237436 1.237437,-1.237436 0.683417,0 1.237436,0.554019 1.237436,1.237436 z"
         transform="translate(0,732.36218)" />
      <path
         transform="translate(8.131728,732.36218)"
         d="m 28.991377,29.528543 c 0,0.683418 -0.554019,1.237437 -1.237436,1.237437 -0.683418,0 -1.237437,-0.554019 -1.237437,-1.237437 0,-0.683417 0.554019,-1.237436 1.237437,-1.237436 0.683417,0 1.237436,0.554019 1.237436,1.237436 z"
         sodipodi:ry="1.2374369"
         sodipodi:rx="1.2374369"
         sodipodi:cy="29.528543"
         sodipodi:cx="27.753941"
         id="path4355"
         style="fill:#000000;fill-opacity:1;stroke:none"
         sodipodi:type="arc" />
      <path
         style="fill:#ff00ff;stroke:none"
         d="m 26.5,771.36218 c 0,0 1.25,-2.5 3.25,-2.5 2,0 2.25,1.75 2.25,1.75 0,0 0.75,-1.75 2.75,-1.75 2,0 2,2.5 2,2.5 0,0 -2.25,2.25 -4.75,2.25 -2.5,0 -5.5,-2.25 -5.5,-2.25 z"
         id="path4357"
         inkscape:connector-curvature="0" />
      <rect
         style="fill:#000000;fill-opacity:1;stroke:none"
         id="rect4359"
         width="11.313708"
         height="1.4142135"
         x="26.162951"
         y="770.5528" />
      <path
         style="fill:#aa4400;stroke:none"
         d="m 12.5,774.36218 9.5,-3.5 c -3.44925,-13.08511 -1.556871,-20.60956 9.5,-21.5 13.48208,-0.59822 15.242962,8.28519 10,21 l 10.5,1 c -0.133148,-16.29108 -7.691065,-28.60752 -20,-28 -23,-1 -19.5,31 -19.5,31 z"
         id="path4391"
         inkscape:connector-curvature="0"
         sodipodi:nodetypes="ccccccc" />
    </g>
    <g
       id="g3328">
      <path
         style="fill:#ffdd55;stroke:#9a8c13;stroke-width:1.88235295;stroke-miterlimit:4;stroke-opacity:1"
         d="m 174.35171,768.25124 c 0.70711,-12.5594 -0.73165,-18.94791 -14.35171,-18.94791 -11.49874,0 -15.05883,6.19226 -15.05883,18.2408 0.75121,5.81104 5.05683,3.37188 5.18044,5.39378 0.33394,5.46188 1.53229,6.40408 9.87839,6.48307 6.51155,0.4074 8.7506,-1.21083 8.66073,-5.85275 -0.0626,-3.23084 4.83971,-0.40785 5.69098,-5.31699 z"
         id="path4339"
         inkscape:connector-curvature="0"
         sodipodi:nodetypes="cscscsc" />
      <path
         style="fill:#000000;fill-opacity:1;stroke:none"
         d="m 149.44953,750.3396 c 0,0 -6.9587,1.4852 -12.02081,10.253 -3.40037,5.8896 2.12131,10.9602 7.07106,8.4853 -2.82843,-18.3848 6.36396,-13.0815 6.36396,-15.2028 0,-2.1213 -1.41421,-3.5355 -1.41421,-3.5355 z"
         id="path4393"
         inkscape:connector-curvature="0"
         sodipodi:nodetypes="cscsc" />
      <path
         style="fill:none;stroke:#000000;stroke-width:1.89999998;stroke-linecap:butt;stroke-linejoin:miter;stroke-miterlimit:4;stroke-opacity:1;stroke-dasharray:none"
         d="m 150.61374,761.36039 c 3.00339,-1.00355 5.58618,-2.42769 6.71752,-5.3033"
         id="path4395"
         inkscape:connector-curvature="0"
         sodipodi:nodetypes="cc" />
      <path
         style="fill:#ff5252;fill-opacity:1;stroke:none"
         d="m 156.375,772.23718 c 0,0 1.14832,-0.3101 3.94916,-2.28005 1.42584,1.90505 2.67584,2.28005 2.67584,2.28005 0,0 0.625,3 -3.125,3 -3.75,0 -3.5,-3 -3.5,-3 z"
         id="path4397"
         inkscape:connector-curvature="0" />
      <path
         style="fill:none;stroke:#9a8c13;stroke-width:1.5;stroke-linecap:butt;stroke-linejoin:miter;stroke-miterlimit:4;stroke-opacity:1;stroke-dasharray:none"
         d="m 150.26019,772.32055 c 7.3166,0.97664 10.7135,-1.09537 9.54594,-6.71752"
         id="path4399"
         inkscape:connector-curvature="0"
         sodipodi:nodetypes="cc" />
      <path
         sodipodi:nodetypes="cc"
         inkscape:connector-curvature="0"
         id="path4401"
         d="m 169.57743,772.6741 c -7.3166,0.9767 -10.7135,-1.0953 -9.54594,-6.7175"
         style="fill:none;stroke:#9a8c13;stroke-width:1.5;stroke-linecap:butt;stroke-linejoin:miter;stroke-miterlimit:4;stroke-opacity:1;stroke-dasharray:none" />
      <path
         style="fill:#000000;fill-opacity:1;stroke:none"
         d="m 163.94522,763.8959 c 0,2.3995 -1.04947,0.7196 -2.01345,1.2761 -0.94076,0.5431 0.24633,2.488 -2.22919,2.613 -1.08342,-0.011 -1.10146,-1.6449 -1.86865,-2.4983 -0.82313,-0.9156 -2.35749,0.9351 -2.37399,-1.3908 0,-2.1479 1.89949,-3.8891 4.24264,-3.8891 2.34314,0 4.24264,1.7412 4.24264,3.8891 z"
         id="path4403"
         inkscape:connector-curvature="0"
         sodipodi:nodetypes="sscscss" />
      <path
         sodipodi:nodetypes="cscsc"
         inkscape:connector-curvature="0"
         id="path4405"
         d="m 170.46012,749.8396 c 0,0 6.9587,1.4852 12.02081,10.253 3.40037,5.8896 -2.12131,10.9602 -7.07106,8.4853 2.82843,-18.3848 -6.36396,-13.0815 -6.36396,-15.2028 0,-2.1213 1.41421,-3.5355 1.41421,-3.5355 z"
         style="fill:#000000;fill-opacity:1;stroke:none" />
      <path
         sodipodi:nodetypes="cc"
         inkscape:connector-curvature="0"
         id="path4407"
         d="m 169.04591,761.4854 c -3.00339,-1.0036 -5.58618,-2.4277 -6.71752,-5.3033"
         style="fill:none;stroke:#000000;stroke-width:1.89999998;stroke-linecap:butt;stroke-linejoin:miter;stroke-miterlimit:4;stroke-opacity:1;stroke-dasharray:none" />
      <path
         sodipodi:type="arc"
         style="fill:#000000;fill-opacity:1;stroke:none"
         id="path4409"
         sodipodi:cx="151.4375"
         sodipodi:cy="33.3125"
         sodipodi:rx="0.5625"
         sodipodi:ry="0.5625"
         d="m 152,33.3125 c 0,0.31066 -0.25184,0.5625 -0.5625,0.5625 -0.31066,0 -0.5625,-0.25184 -0.5625,-0.5625 0,-0.31066 0.25184,-0.5625 0.5625,-0.5625 0.31066,0 0.5625,0.25184 0.5625,0.5625 z"
         transform="translate(0,732.36218)" />
      <path
         transform="translate(2.375,734.36218)"
         d="m 152,33.3125 c 0,0.31066 -0.25184,0.5625 -0.5625,0.5625 -0.31066,0 -0.5625,-0.25184 -0.5625,-0.5625 0,-0.31066 0.25184,-0.5625 0.5625,-0.5625 0.31066,0 0.5625,0.25184 0.5625,0.5625 z"
         sodipodi:ry="0.5625"
         sodipodi:rx="0.5625"
         sodipodi:cy="33.3125"
         sodipodi:cx="151.4375"
         id="path4411"
         style="fill:#000000;fill-opacity:1;stroke:none"
         sodipodi:type="arc" />
      <path
         sodipodi:type="arc"
         style="fill:#000000;fill-opacity:1;stroke:none"
         id="path4413"
         sodipodi:cx="151.4375"
         sodipodi:cy="33.3125"
         sodipodi:rx="0.5625"
         sodipodi:ry="0.5625"
         d="m 152,33.3125 c 0,0.31066 -0.25184,0.5625 -0.5625,0.5625 -0.31066,0 -0.5625,-0.25184 -0.5625,-0.5625 0,-0.31066 0.25184,-0.5625 0.5625,-0.5625 0.31066,0 0.5625,0.25184 0.5625,0.5625 z"
         transform="translate(-0.75,735.11218)" />
      <path
         transform="translate(14.75,732.86218)"
         d="m 152,33.3125 c 0,0.31066 -0.25184,0.5625 -0.5625,0.5625 -0.31066,0 -0.5625,-0.25184 -0.5625,-0.5625 0,-0.31066 0.25184,-0.5625 0.5625,-0.5625 0.31066,0 0.5625,0.25184 0.5625,0.5625 z"
         sodipodi:ry="0.5625"
         sodipodi:rx="0.5625"
         sodipodi:cy="33.3125"
         sodipodi:cx="151.4375"
         id="path4415"
         style="fill:#000000;fill-opacity:1;stroke:none"
         sodipodi:type="arc" />
      <path
         sodipodi:type="arc"
         style="fill:#000000;fill-opacity:1;stroke:none"
         id="path4417"
         sodipodi:cx="151.4375"
         sodipodi:cy="33.3125"
         sodipodi:rx="0.5625"
         sodipodi:ry="0.5625"
         d="m 152,33.3125 c 0,0.31066 -0.25184,0.5625 -0.5625,0.5625 -0.31066,0 -0.5625,-0.25184 -0.5625,-0.5625 0,-0.31066 0.25184,-0.5625 0.5625,-0.5625 0.31066,0 0.5625,0.25184 0.5625,0.5625 z"
         transform="translate(13.5,735.23718)" />
      <path
         transform="translate(16.5,735.36218)"
         d="m 152,33.3125 c 0,0.31066 -0.25184,0.5625 -0.5625,0.5625 -0.31066,0 -0.5625,-0.25184 -0.5625,-0.5625 0,-0.31066 0.25184,-0.5625 0.5625,-0.5625 0.31066,0 0.5625,0.25184 0.5625,0.5625 z"
         sodipodi:ry="0.5625"
         sodipodi:rx="0.5625"
         sodipodi:cy="33.3125"
         sodipodi:cx="151.4375"
         id="path4419"
         style="fill:#000000;fill-opacity:1;stroke:none"
         sodipodi:type="arc" />
    </g>
    <g
       id="g3345">
      <path
         transform="matrix(0.94117646,0,0,-0.94117647,193.88235,794.4798)"
         d="m 48,32 c 0,8.836556 -7.163444,16 -16,16 -8.836556,0 -16,-7.163444 -16,-16 0,-8.836556 7.163444,-16 16,-16 8.836556,0 16,7.163444 16,16 z"
         sodipodi:ry="16"
         sodipodi:rx="16"
         sodipodi:cy="32"
         sodipodi:cx="32"
         id="path4341"
         style="fill:#ffdd55;stroke:#9a8c13;stroke-width:2;stroke-miterlimit:4;stroke-opacity:1;stroke-dasharray:none"
         sodipodi:type="arc" />
      <path
         sodipodi:type="arc"
         style="fill:#000000;fill-opacity:1;stroke:none"
         id="path4421"
         sodipodi:cx="27.753941"
         sodipodi:cy="29.528543"
         sodipodi:rx="1.2374369"
         sodipodi:ry="1.2374369"
         d="m 28.991377,29.528543 c 0,0.683418 -0.554019,1.237437 -1.237436,1.237437 -0.683418,0 -1.237437,-0.554019 -1.237437,-1.237437 0,-0.683417 0.554019,-1.237436 1.237437,-1.237436 0.683417,0 1.237436,0.554019 1.237436,1.237436 z"
         transform="translate(191.75,732.11218)" />
      <path
         transform="translate(199.88173,732.11218)"
         d="m 28.991377,29.528543 c 0,0.683418 -0.554019,1.237437 -1.237436,1.237437 -0.683418,0 -1.237437,-0.554019 -1.237437,-1.237437 0,-0.683417 0.554019,-1.237436 1.237437,-1.237436 0.683417,0 1.237436,0.554019 1.237436,1.237436 z"
         sodipodi:ry="1.2374369"
         sodipodi:rx="1.2374369"
         sodipodi:cy="29.528543"
         sodipodi:cx="27.753941"
         id="path4423"
         style="fill:#000000;fill-opacity:1;stroke:none"
         sodipodi:type="arc" />
      <rect
         style="fill:#000000;fill-opacity:1;stroke:none"
         id="rect4425"
         width="11.313708"
         height="1.4142135"
         x="217.91295"
         y="770.30273" />
      <path
         style="fill:#5995e1;fill-opacity:1;stroke:#000000;stroke-width:1px;stroke-linecap:butt;stroke-linejoin:miter;stroke-opacity:1"
         d="m 227.5,757.6122 c 0,0 8.25,7.5 15.5,2.25 7.25,-5.25 -1.75,-5.75 -1.75,-5.75 l -12,-0.5 z"
         id="path4427"
         inkscape:connector-curvature="0" />
      <path
         style="fill:#5995e1;fill-opacity:1;stroke:#000000;stroke-width:1px;stroke-linecap:butt;stroke-linejoin:miter;stroke-opacity:1"
         d="m 209.75,753.86218 c 0,0 5,3.5 13.5,3.5 8.5,0 14.75,-3 14.75,-3 0,0 -2.75,-8.75 -14,-8.5 -11.25,0.25 -14.25,8 -14.25,8 z"
         id="path4429"
         inkscape:connector-curvature="0" />
    </g>
    <g
       id="g3353">
      <path
         sodipodi:type="arc"
         style="fill:#ffdd55;stroke:#9a8c13;stroke-width:2;stroke-miterlimit:4;stroke-opacity:1;stroke-dasharray:none"
         id="path4343"
         sodipodi:cx="32"
         sodipodi:cy="32"
         sodipodi:rx="16"
         sodipodi:ry="16"
         d="m 48,32 c 0,8.836556 -7.163444,16 -16,16 -8.836556,0 -16,-7.163444 -16,-16 0,-8.836556 7.163444,-16 16,-16 8.836556,0 16,7.163444 16,16 z"
         transform="matrix(0.94117646,0,0,-0.94117647,257.88235,794.4798)" />
      <g
         transform="translate(0,-256)"
         id="g4431">
        <path
           transform="matrix(0.73206554,0,0,0.85122317,71.898485,989.41329)"
           d="m 281.75,29.75 c 0,3.589851 -3.07804,6.5 -6.875,6.5 -3.79696,0 -6.875,-2.910149 -6.875,-6.5 0,-3.589851 3.07804,-6.5 6.875,-6.5 3.79696,0 6.875,2.910149 6.875,6.5 z"
           sodipodi:ry="6.5"
           sodipodi:rx="6.875"
           sodipodi:cy="29.75"
           sodipodi:cx="274.875"
           id="path4433"
           style="fill:#f97258;fill-opacity:1;stroke:#000000;stroke-width:1.5;stroke-miterlimit:4;stroke-opacity:1;stroke-dasharray:none"
           sodipodi:type="arc" />
        <path
           transform="translate(2,998.61218)"
           d="m 271.5,22 c 0,1.518783 -1.67893,2.75 -3.75,2.75 -2.07107,0 -3.75,-1.231217 -3.75,-2.75 0,-1.518783 1.67893,-2.75 3.75,-2.75 2.07107,0 3.75,1.231217 3.75,2.75 z"
           sodipodi:ry="2.75"
           sodipodi:rx="3.75"
           sodipodi:cy="22"
           sodipodi:cx="267.75"
           id="path4435"
           style="fill:#f97258;fill-opacity:1;stroke:#000000;stroke-width:1.5;stroke-miterlimit:4;stroke-opacity:1;stroke-dasharray:none"
           sodipodi:type="arc" />
        <path
           sodipodi:nodetypes="sssss"
           inkscape:connector-curvature="0"
           id="path4437"
           d="m 271.75,36.5 c 0,8.869005 -1.34315,3.469702 -3,3 -1.59403,-0.451894 -5,2.156854 -5,0.5 0,-1.656854 3.34315,-6.5 5,-6.5 1.65685,0 3,1.343146 3,3 z"
           style="fill:#f97258;fill-opacity:1;stroke:#000000;stroke-width:1.5;stroke-miterlimit:4;stroke-opacity:1"
           transform="translate(0,988.36218)" />
      </g>
      <g
         id="g4439"
         transform="matrix(-1,0,0,1,575.75,-256)">
        <path
           sodipodi:type="arc"
           style="fill:#f97258;fill-opacity:1;stroke:#000000;stroke-width:1.5;stroke-miterlimit:4;stroke-opacity:1;stroke-dasharray:none"
           id="path4441"
           sodipodi:cx="274.875"
           sodipodi:cy="29.75"
           sodipodi:rx="6.875"
           sodipodi:ry="6.5"
           d="m 281.75,29.75 c 0,3.589851 -3.07804,6.5 -6.875,6.5 -3.79696,0 -6.875,-2.910149 -6.875,-6.5 0,-3.589851 3.07804,-6.5 6.875,-6.5 3.79696,0 6.875,2.910149 6.875,6.5 z"
           transform="matrix(0.73206554,0,0,0.85122317,71.898485,989.41329)" />
        <path
           sodipodi:type="arc"
           style="fill:#f97258;fill-opacity:1;stroke:#000000;stroke-width:1.5;stroke-miterlimit:4;stroke-opacity:1;stroke-dasharray:none"
           id="path4443"
           sodipodi:cx="267.75"
           sodipodi:cy="22"
           sodipodi:rx="3.75"
           sodipodi:ry="2.75"
           d="m 271.5,22 c 0,1.518783 -1.67893,2.75 -3.75,2.75 -2.07107,0 -3.75,-1.231217 -3.75,-2.75 0,-1.518783 1.67893,-2.75 3.75,-2.75 2.07107,0 3.75,1.231217 3.75,2.75 z"
           transform="translate(2,998.61218)" />
        <path
           transform="translate(0,988.36218)"
           style="fill:#f97258;fill-opacity:1;stroke:#000000;stroke-width:1.5;stroke-miterlimit:4;stroke-opacity:1"
           d="m 271.75,36.5 c 0,8.869005 -1.34315,3.469702 -3,3 -1.59403,-0.451894 -5,2.156854 -5,0.5 0,-1.656854 3.34315,-6.5 5,-6.5 1.65685,0 3,1.343146 3,3 z"
           id="path4445"
           inkscape:connector-curvature="0"
           sodipodi:nodetypes="sssss" />
      </g>
      <path
         style="fill:#f97258;fill-opacity:1;stroke:#000000;stroke-width:1px;stroke-linecap:butt;stroke-linejoin:miter;stroke-opacity:1"
         d="m 272.75,756.36218 c 0,0 4,-10.25 14.75,-10 10.75,0.25 16.25,9.75 16.25,9.75 l -3.75,4.25 c 0,0 -11.5,-1.25 -11.75,-9 0,7.25 -12.5,10 -12.5,10 z"
         id="path4447"
         inkscape:connector-curvature="0"
         sodipodi:nodetypes="csccccc" />
      <path
         transform="translate(255.75,732.61218)"
         d="m 28.991377,29.528543 c 0,0.683418 -0.554019,1.237437 -1.237436,1.237437 -0.683418,0 -1.237437,-0.554019 -1.237437,-1.237437 0,-0.683417 0.554019,-1.237436 1.237437,-1.237436 0.683417,0 1.237436,0.554019 1.237436,1.237436 z"
         sodipodi:ry="1.2374369"
         sodipodi:rx="1.2374369"
         sodipodi:cy="29.528543"
         sodipodi:cx="27.753941"
         id="path4449"
         style="fill:#000000;fill-opacity:1;stroke:none"
         sodipodi:type="arc" />
      <path
         sodipodi:type="arc"
         style="fill:#000000;fill-opacity:1;stroke:none"
         id="path4451"
         sodipodi:cx="27.753941"
         sodipodi:cy="29.528543"
         sodipodi:rx="1.2374369"
         sodipodi:ry="1.2374369"
         d="m 28.991377,29.528543 c 0,0.683418 -0.554019,1.237437 -1.237436,1.237437 -0.683418,0 -1.237437,-0.554019 -1.237437,-1.237437 0,-0.683417 0.554019,-1.237436 1.237437,-1.237436 0.683417,0 1.237436,0.554019 1.237436,1.237436 z"
         transform="translate(263.88173,732.61218)" />
      <rect
         y="770.80273"
         x="281.91296"
         height="1.4142135"
         width="11.313708"
         id="rect4453"
         style="fill:#000000;fill-opacity:1;stroke:none" />
    </g>
    <g
       id="g3377">
      <path
         style="fill:#f8c6bf;fill-opacity:0.53333285;stroke:#000000;stroke-width:1.44000006px;stroke-linecap:butt;stroke-linejoin:miter;stroke-opacity:1"
         d="m 417.99345,785.563 c 0,0 -3.90051,-5.6841 -0.5261,-10.0408 3.61475,-4.667 12.45642,-10.1823 8.17983,-11.4552 -4.27658,-1.2728 -8.73984,4.2426 -8.73984,4.2426 0,0 8.23073,-20.506 4.56509,-21.7788 -3.66565,-1.2729 -7.14461,16.1221 -7.14461,16.1221 0,0 1.96858,-19.09191 -1.69705,-19.09191 -3.66565,0 -3.19049,19.09191 -3.19049,19.09191 0,0 -2.12132,-16.5463 -5.176,-16.5463 -3.0547,0 0.2885,16.9705 0.2885,16.9705 0,0 -3.29231,-13.1521 -5.73606,-11.8794 -2.44376,1.2728 2.68135,12.7279 2.68135,12.7279 0,0 -1.22189,1.2728 0,6.7883 1.2219,5.5154 3.66565,5.9396 3.66565,5.9396 0,0 -3.05472,4.6669 0,8.9095 3.0547,4.2428 12.82973,0 12.82973,0 z"
         id="path4455"
         inkscape:connector-curvature="0"
         sodipodi:nodetypes="csscscscscscscsc" />
      <path
         style="fill:none;stroke:#000000;stroke-width:1px;stroke-linecap:butt;stroke-linejoin:miter;stroke-opacity:1"
         d="m 417.193,765.95659 c 0,0 -4.66494,-0.42397 -5.97744,1.32603 -2.8125,1.8125 -1.80073,5.74504 -1.80073,5.74504"
         id="path4457"
         inkscape:connector-curvature="0"
         sodipodi:nodetypes="ccc" />
    </g>
    <g
       id="g4356">
      <path
         sodipodi:type="arc"
         style="fill:#ffdd55;stroke:#9a8c13;stroke-width:2;stroke-miterlimit:4;stroke-opacity:1;stroke-dasharray:none"
         id="path4465"
         sodipodi:cx="32"
         sodipodi:cy="32"
         sodipodi:rx="16"
         sodipodi:ry="16"
         d="m 48,32 a 16,16 0 1 1 -32,0 16,16 0 1 1 32,0 z"
         transform="matrix(0.94117646,0,0,-0.94117647,193.88235,858.4798)" />
      <path
         transform="translate(191.75,796.11218)"
         d="m 28.991377,29.528543 a 1.2374369,1.2374369 0 1 1 -2.474873,0 1.2374369,1.2374369 0 1 1 2.474873,0 z"
         sodipodi:ry="1.2374369"
         sodipodi:rx="1.2374369"
         sodipodi:cy="29.528543"
         sodipodi:cx="27.753941"
         id="path4545"
         style="fill:#000000;fill-opacity:1;stroke:none"
         sodipodi:type="arc" />
      <path
         sodipodi:type="arc"
         style="fill:#000000;fill-opacity:1;stroke:none"
         id="path4547"
         sodipodi:cx="27.753941"
         sodipodi:cy="29.528543"
         sodipodi:rx="1.2374369"
         sodipodi:ry="1.2374369"
         d="m 28.991377,29.528543 a 1.2374369,1.2374369 0 1 1 -2.474873,0 1.2374369,1.2374369 0 1 1 2.474873,0 z"
         transform="translate(199.88173,796.11218)" />
      <rect
         y="834.30273"
         x="217.91295"
         height="1.4142135"
         width="11.313708"
         id="rect4549"
         style="fill:#000000;fill-opacity:1;stroke:none" />
      <path
         sodipodi:nodetypes="cccsccccsc"
         inkscape:connector-curvature="0"
         id="path4553"
         d="m 208.875,819.98718 c 0.38952,3.81082 12.01676,0.36388 16.75,0.375 8.5,0 14.25,1 14.25,1 -4.69134,-1.43885 -9.57156,-2.88284 -14.87475,-2.88778 -3.53369,-0.003 -7.81117,1.39686 -10.31002,1.06413 -1.37207,-0.79216 10.09656,-5.07117 25.14283,-1.29133 -3.51968,-5.41717 -19.22364,-1.69975 -25.32184,-2.39961 29.23576,-3.81443 22.52897,-5.0142 25.73878,-7.11041 -4.3811,2.54276 -12.33745,3.96407 -16.38432,4.32916 -9.34342,0.84294 -15.57991,3.80971 -14.99068,6.92084 z"
         style="fill:#008080;fill-opacity:1;stroke:#000000;stroke-width:1px;stroke-linecap:butt;stroke-linejoin:miter;stroke-opacity:1" />
    </g>
    <g
       id="g3432">
      <path
         transform="matrix(0.94117646,0,0,-0.94117647,65.88235,857.9798)"
         d="m 48,32 c 0,8.836556 -7.163444,16 -16,16 -8.836556,0 -16,-7.163444 -16,-16 0,-8.836556 7.163444,-16 16,-16 8.836556,0 16,7.163444 16,16 z"
         sodipodi:ry="16"
         sodipodi:rx="16"
         sodipodi:cy="32"
         sodipodi:cx="32"
         id="path4467"
         style="fill:#ffdd55;stroke:#9a8c13;stroke-width:2;stroke-miterlimit:4;stroke-opacity:1;stroke-dasharray:none"
         sodipodi:type="arc" />
      <g
         style="fill:#008080"
         id="g4555"
         transform="translate(-192,-192.5)">
        <path
           sodipodi:type="arc"
           style="fill:#008080;fill-opacity:1;stroke:#000000;stroke-width:1.5;stroke-miterlimit:4;stroke-opacity:1;stroke-dasharray:none"
           id="path4557"
           sodipodi:cx="274.875"
           sodipodi:cy="29.75"
           sodipodi:rx="6.875"
           sodipodi:ry="6.5"
           d="m 281.75,29.75 c 0,3.589851 -3.07804,6.5 -6.875,6.5 -3.79696,0 -6.875,-2.910149 -6.875,-6.5 0,-3.589851 3.07804,-6.5 6.875,-6.5 3.79696,0 6.875,2.910149 6.875,6.5 z"
           transform="matrix(0.73206554,0,0,0.85122317,71.898485,989.41329)" />
        <path
           sodipodi:type="arc"
           style="fill:#008080;fill-opacity:1;stroke:#000000;stroke-width:1.5;stroke-miterlimit:4;stroke-opacity:1;stroke-dasharray:none"
           id="path4559"
           sodipodi:cx="267.75"
           sodipodi:cy="22"
           sodipodi:rx="3.75"
           sodipodi:ry="2.75"
           d="m 271.5,22 c 0,1.518783 -1.67893,2.75 -3.75,2.75 -2.07107,0 -3.75,-1.231217 -3.75,-2.75 0,-1.518783 1.67893,-2.75 3.75,-2.75 2.07107,0 3.75,1.231217 3.75,2.75 z"
           transform="translate(2,998.61218)" />
        <path
           transform="translate(0,988.36218)"
           style="fill:#008080;fill-opacity:1;stroke:#000000;stroke-width:1.5;stroke-miterlimit:4;stroke-opacity:1"
           d="m 271.75,36.5 c 0,8.869005 -1.34315,3.469702 -3,3 -1.59403,-0.451894 -5,2.156854 -5,0.5 0,-1.656854 3.34315,-6.5 5,-6.5 1.65685,0 3,1.343146 3,3 z"
           id="path4561"
           inkscape:connector-curvature="0"
           sodipodi:nodetypes="sssss" />
      </g>
      <g
         style="fill:#008080"
         transform="matrix(-1,0,0,1,383.75,-192.5)"
         id="g4563">
        <path
           transform="matrix(0.73206554,0,0,0.85122317,71.898485,989.41329)"
           d="m 281.75,29.75 c 0,3.589851 -3.07804,6.5 -6.875,6.5 -3.79696,0 -6.875,-2.910149 -6.875,-6.5 0,-3.589851 3.07804,-6.5 6.875,-6.5 3.79696,0 6.875,2.910149 6.875,6.5 z"
           sodipodi:ry="6.5"
           sodipodi:rx="6.875"
           sodipodi:cy="29.75"
           sodipodi:cx="274.875"
           id="path4565"
           style="fill:#008080;fill-opacity:1;stroke:#000000;stroke-width:1.5;stroke-miterlimit:4;stroke-opacity:1;stroke-dasharray:none"
           sodipodi:type="arc" />
        <path
           transform="translate(2,998.61218)"
           d="m 271.5,22 c 0,1.518783 -1.67893,2.75 -3.75,2.75 -2.07107,0 -3.75,-1.231217 -3.75,-2.75 0,-1.518783 1.67893,-2.75 3.75,-2.75 2.07107,0 3.75,1.231217 3.75,2.75 z"
           sodipodi:ry="2.75"
           sodipodi:rx="3.75"
           sodipodi:cy="22"
           sodipodi:cx="267.75"
           id="path4567"
           style="fill:#008080;fill-opacity:1;stroke:#000000;stroke-width:1.5;stroke-miterlimit:4;stroke-opacity:1;stroke-dasharray:none"
           sodipodi:type="arc" />
        <path
           sodipodi:nodetypes="sssss"
           inkscape:connector-curvature="0"
           id="path4569"
           d="m 271.75,36.5 c 0,8.869005 -1.34315,3.469702 -3,3 -1.59403,-0.451894 -5,2.156854 -5,0.5 0,-1.656854 3.34315,-6.5 5,-6.5 1.65685,0 3,1.343146 3,3 z"
           style="fill:#008080;fill-opacity:1;stroke:#000000;stroke-width:1.5;stroke-miterlimit:4;stroke-opacity:1"
           transform="translate(0,988.36218)" />
      </g>
      <path
         sodipodi:nodetypes="csccccc"
         inkscape:connector-curvature="0"
         id="path4571"
         d="m 80.75,819.86218 c 0,0 4,-10.25 14.75,-10 10.75,0.25 16.25,9.75 16.25,9.75 l -3.75,4.25 c 0,0 -11.5,-1.25 -11.75,-9 0,7.25 -12.5,10 -12.5,10 z"
         style="fill:#008080;fill-opacity:1;stroke:#000000;stroke-width:1px;stroke-linecap:butt;stroke-linejoin:miter;stroke-opacity:1" />
      <path
         sodipodi:type="arc"
         style="fill:#000000;fill-opacity:1;stroke:none"
         id="path4573"
         sodipodi:cx="27.753941"
         sodipodi:cy="29.528543"
         sodipodi:rx="1.2374369"
         sodipodi:ry="1.2374369"
         d="m 28.991377,29.528543 c 0,0.683418 -0.554019,1.237437 -1.237436,1.237437 -0.683418,0 -1.237437,-0.554019 -1.237437,-1.237437 0,-0.683417 0.554019,-1.237436 1.237437,-1.237436 0.683417,0 1.237436,0.554019 1.237436,1.237436 z"
         transform="translate(63.75,796.11218)" />
      <path
         transform="translate(71.88173,796.11218)"
         d="m 28.991377,29.528543 c 0,0.683418 -0.554019,1.237437 -1.237436,1.237437 -0.683418,0 -1.237437,-0.554019 -1.237437,-1.237437 0,-0.683417 0.554019,-1.237436 1.237437,-1.237436 0.683417,0 1.237436,0.554019 1.237436,1.237436 z"
         sodipodi:ry="1.2374369"
         sodipodi:rx="1.2374369"
         sodipodi:cy="29.528543"
         sodipodi:cx="27.753941"
         id="path4575"
         style="fill:#000000;fill-opacity:1;stroke:none"
         sodipodi:type="arc" />
      <rect
         style="fill:#000000;fill-opacity:1;stroke:none"
         id="rect4577"
         width="11.313708"
         height="1.4142135"
         x="89.912964"
         y="834.30273" />
      <path
         style="fill:#808000;fill-opacity:1;stroke:#000000;stroke-width:1px;stroke-linecap:butt;stroke-linejoin:miter;stroke-opacity:1"
         d="m 91.6858,816.09901 c 0,0 -8.249999,7.5 -15.499999,2.24999 -7.25,-5.24999 1.75,-5.74998 1.75,-5.74998 l 12,-0.5 z"
         id="path3381"
         inkscape:connector-curvature="0" />
      <path
         style="fill:#808000;fill-opacity:1;stroke:#000000;stroke-width:1px;stroke-linecap:butt;stroke-linejoin:miter;stroke-opacity:1"
         d="m 109.4358,812.349 c 0,0 -5,3.49999 -13.5,3.49999 -8.500009,1e-5 -14.749999,-3 -14.749999,-3 0,0 2.75,-8.75 13.999999,-8.5 11.25,0.25 14.25,8.00001 14.25,8.00001 z"
         id="path3383"
         inkscape:connector-curvature="0" />
    </g>
    <g
       id="g3425">
      <path
         transform="matrix(0.94117646,0,0,-0.94117647,2.3823499,858.4798)"
         d="m 48,32 c 0,8.836556 -7.163444,16 -16,16 -8.836556,0 -16,-7.163444 -16,-16 0,-8.836556 7.163444,-16 16,-16 8.836556,0 16,7.163444 16,16 z"
         sodipodi:ry="16"
         sodipodi:rx="16"
         sodipodi:cy="32"
         sodipodi:cx="32"
         id="path3397"
         style="fill:#ffdd55;stroke:#9a8c13;stroke-width:2;stroke-miterlimit:4;stroke-opacity:1;stroke-dasharray:none"
         sodipodi:type="arc" />
      <path
         sodipodi:nodetypes="csccccsssssc"
         style="fill:#008080;fill-opacity:1;stroke:#000000;stroke-width:1px;stroke-linecap:butt;stroke-linejoin:miter;stroke-opacity:1"
         d="m 16.835787,833.06498 c 0,0 1.778825,-17.68407 9.075207,-17.04641 2.926538,0.25576 3.705283,2.51518 6.369336,4.10617 2.902168,-0.85204 3.376863,-3.74521 6.077016,-3.3858 3.715698,1.31769 5.826569,3.46472 7.386895,8.54894 3.986563,0.52163 10.655254,-0.0314 10.655254,-0.0314 0,0 -4.874299,-4.20414 -8.530736,-6.01975 -2.584725,-1.28346 -2.430855,-3.62397 -4.450932,-5.34264 -3.740792,-3.18265 -8.940626,-3.55221 -13.039147,-4.0319 -0.761622,-0.0891 -1.667957,-14.4729 -1.667957,-14.4729 -3.128779,4.67373 -8.823597,12.51283 -11.956562,20.25287 -2.708472,6.69131 0.08163,17.42283 0.08163,17.42283 z"
         id="path3407"
         inkscape:connector-curvature="0" />
      <path
         sodipodi:type="arc"
         style="fill:#000000;fill-opacity:1;stroke:none"
         id="path3399"
         sodipodi:cx="27.753941"
         sodipodi:cy="29.528543"
         sodipodi:rx="1.2374369"
         sodipodi:ry="1.2374369"
         d="m 28.991377,29.528543 c 0,0.683418 -0.554019,1.237437 -1.237436,1.237437 -0.683418,0 -1.237437,-0.554019 -1.237437,-1.237437 0,-0.683417 0.554019,-1.237436 1.237437,-1.237436 0.683417,0 1.237436,0.554019 1.237436,1.237436 z"
         transform="translate(0.2499999,796.11218)" />
      <path
         transform="translate(8.3817299,796.11218)"
         d="m 28.991377,29.528543 c 0,0.683418 -0.554019,1.237437 -1.237436,1.237437 -0.683418,0 -1.237437,-0.554019 -1.237437,-1.237437 0,-0.683417 0.554019,-1.237436 1.237437,-1.237436 0.683417,0 1.237436,0.554019 1.237436,1.237436 z"
         sodipodi:ry="1.2374369"
         sodipodi:rx="1.2374369"
         sodipodi:cy="29.528543"
         sodipodi:cx="27.753941"
         id="path3401"
         style="fill:#000000;fill-opacity:1;stroke:none"
         sodipodi:type="arc" />
      <rect
         style="fill:#000000;fill-opacity:1;stroke:none"
         id="rect3403"
         width="11.313708"
         height="1.4142135"
         x="26.412949"
         y="834.30273" />
    </g>
    <g
       id="g4557">
      <path
         transform="matrix(0.94117646,0,0,-0.94117647,129.88235,858.2298)"
         d="m 48,32 a 16,16 0 1 1 -32,0 16,16 0 1 1 32,0 z"
         sodipodi:ry="16"
         sodipodi:rx="16"
         sodipodi:cy="32"
         sodipodi:cx="32"
         id="path3449"
         style="fill:#f0c000;fill-opacity:1;stroke:#9a8c13;stroke-width:2;stroke-miterlimit:4;stroke-opacity:1;stroke-dasharray:none"
         sodipodi:type="arc" />
      <path
         sodipodi:type="arc"
         style="fill:#000000;fill-opacity:1;stroke:none"
         id="path3451"
         sodipodi:cx="27.753941"
         sodipodi:cy="29.528543"
         sodipodi:rx="1.2374369"
         sodipodi:ry="1.2374369"
         d="m 28.991377,29.528543 a 1.2374369,1.2374369 0 1 1 -2.474873,0 1.2374369,1.2374369 0 1 1 2.474873,0 z"
         transform="translate(127.75,795.86218)" />
      <path
         transform="translate(135.88173,795.86218)"
         d="m 28.991377,29.528543 a 1.2374369,1.2374369 0 1 1 -2.474873,0 1.2374369,1.2374369 0 1 1 2.474873,0 z"
         sodipodi:ry="1.2374369"
         sodipodi:rx="1.2374369"
         sodipodi:cy="29.528543"
         sodipodi:cx="27.753941"
         id="path3453"
         style="fill:#000000;fill-opacity:1;stroke:none"
         sodipodi:type="arc" />
      <path
         sodipodi:nodetypes="cscssc"
         style="fill:#008080;fill-opacity:1;stroke:#000000;stroke-width:1px;stroke-linecap:butt;stroke-linejoin:miter;stroke-opacity:1"
         d="m 145.5,821.61218 c 0,0 5.75,-5.5 14.25,-5.5 8.5,0 14,5.5 14,5.5 0,0 -0.50653,-9.94092 -3.6146,-12.45782 -2.9869,-2.41878 -15.3569,-2.05056 -19.6354,-0.79218 -4.25,1.25 -5,13.25 -5,13.25 z"
         id="path3459"
         inkscape:connector-curvature="0" />
      <path
         inkscape:connector-curvature="0"
         id="path3461"
         d="m 157.25,824.61218 -6.25,-3.5"
         style="fill:none;stroke:#000000;stroke-width:1px;stroke-linecap:butt;stroke-linejoin:miter;stroke-opacity:1" />
      <path
         inkscape:connector-curvature="0"
         id="path3463"
         d="m 150.75,826.36218 4.5,-0.25"
         style="fill:none;stroke:#000000;stroke-width:1px;stroke-linecap:butt;stroke-linejoin:miter;stroke-opacity:1" />
      <path
         style="fill:none;stroke:#000000;stroke-width:1px;stroke-linecap:butt;stroke-linejoin:miter;stroke-opacity:1"
         d="m 163,824.36218 6.25,-3.5"
         id="path3465"
         inkscape:connector-curvature="0" />
      <path
         style="fill:none;stroke:#000000;stroke-width:1px;stroke-linecap:butt;stroke-linejoin:miter;stroke-opacity:1"
         d="m 169.5,826.11218 -4.5,-0.25"
         id="path3467"
         inkscape:connector-curvature="0" />
      <path
         sodipodi:nodetypes="ccc"
         inkscape:connector-curvature="0"
         id="path3469"
         d="m 154.75,836.36218 c 0,0 0.5,-2.5 5.75,-2.5 5,0.25 5.5,2.5 5.5,2.5"
         style="fill:none;stroke:#000000;stroke-width:1px;stroke-linecap:butt;stroke-linejoin:miter;stroke-opacity:1" />
      <path
         sodipodi:nodetypes="ccccccccscscc"
         inkscape:connector-curvature="0"
         id="path3471"
         d="m 151.4948,832.31929 c 0.25,4.5 -1.43934,5.64644 0.0607,8.64644 1.75,4.25 15.46231,2.71967 16.96231,-0.0303 1.5,-3 1.03033,-3.86611 -0.21967,-8.61611 -2.75,-1.75 -14.5533,-1.25 -16.8033,0 z m 2,0.92677 13.33363,-0.10355 0.51256,4.93934 c 0,0 -2.74577,3.16731 -4.13083,2.2471 -0.9952,-0.66119 -1.06329,-4.96677 -2.96016,-4.96677 -1.78733,0.17678 -1.83691,4.60372 -2.87702,5.39018 -1.1069,0.83697 -3.89075,-2.31696 -3.89075,-2.31696 z"
         style="fill:#008080;stroke:#000000;stroke-width:1px;stroke-linecap:butt;stroke-linejoin:miter;stroke-opacity:1" />
    </g>
    <g
       id="g3290">
      <path
         transform="matrix(0.94117646,0,0,-0.94117647,257.87551,858.12625)"
         d="m 48,32 c 0,8.836556 -7.163444,16 -16,16 -8.836556,0 -16,-7.163444 -16,-16 0,-8.836556 7.163444,-16 16,-16 8.836556,0 16,7.163444 16,16 z"
         sodipodi:ry="16"
         sodipodi:rx="16"
         sodipodi:cy="32"
         sodipodi:cx="32"
         id="path4255"
         style="fill:#ffdd55;stroke:#9a8c13;stroke-width:2;stroke-miterlimit:4;stroke-opacity:1;stroke-dasharray:none"
         sodipodi:type="arc" />
      <path
         sodipodi:type="arc"
         style="fill:#000000;fill-opacity:1;stroke:none"
         id="path4257"
         sodipodi:cx="27.753941"
         sodipodi:cy="29.528543"
         sodipodi:rx="1.2374369"
         sodipodi:ry="1.2374369"
         d="m 28.991377,29.528543 c 0,0.683418 -0.554019,1.237437 -1.237436,1.237437 -0.683418,0 -1.237437,-0.554019 -1.237437,-1.237437 0,-0.683417 0.554019,-1.237436 1.237437,-1.237436 0.683417,0 1.237436,0.554019 1.237436,1.237436 z"
         transform="translate(255.74316,795.75863)" />
      <path
         transform="translate(263.87489,795.75863)"
         d="m 28.991377,29.528543 c 0,0.683418 -0.554019,1.237437 -1.237436,1.237437 -0.683418,0 -1.237437,-0.554019 -1.237437,-1.237437 0,-0.683417 0.554019,-1.237436 1.237437,-1.237436 0.683417,0 1.237436,0.554019 1.237436,1.237436 z"
         sodipodi:ry="1.2374369"
         sodipodi:rx="1.2374369"
         sodipodi:cy="29.528543"
         sodipodi:cx="27.753941"
         id="path4260"
         style="fill:#000000;fill-opacity:1;stroke:none"
         sodipodi:type="arc" />
      <path
         sodipodi:nodetypes="csccc"
         style="fill:#008080;fill-opacity:1;stroke:#000000;stroke-width:1px;stroke-linecap:butt;stroke-linejoin:miter;stroke-opacity:1"
         d="m 276.61816,835.13363 c 0,0 5,3.5 13.5,3.5 8.5,0 14.75,-3 14.75,-3 -4.11703,-3.98256 -8.57687,-2.71268 -14.125,-2.625 -8.25,-4.25 -14.125,2.125 -14.125,2.125 z"
         id="path4264"
         inkscape:connector-curvature="0" />
      <path
         inkscape:connector-curvature="0"
         id="path4270"
         d="m 277.125,835.11218 27.5,0.25"
         style="fill:none;stroke:#000000;stroke-width:1px;stroke-linecap:butt;stroke-linejoin:miter;stroke-opacity:1" />
      <path
         sodipodi:nodetypes="ccc"
         inkscape:connector-curvature="0"
         id="path4272"
         d="m 285.875,818.73718 c 0,0 0.92218,-4.13964 -0.82782,-7.13964 -0.75,-1.5 -2.54718,-3.73536 -2.54718,-3.73536"
         style="fill:none;stroke:#000000;stroke-width:1px;stroke-linecap:butt;stroke-linejoin:miter;stroke-opacity:1" />
      <path
         inkscape:connector-curvature="0"
         id="path4274"
         d="m 288.25,816.36218 -0.375,-11.25"
         style="fill:none;stroke:#000000;stroke-width:1px;stroke-linecap:butt;stroke-linejoin:miter;stroke-opacity:1" />
      <path
         sodipodi:nodetypes="ccc"
         inkscape:connector-curvature="0"
         id="path4276"
         d="m 291.125,816.61218 c -0.29968,-0.0514 -0.22407,-6.72748 1.98297,-8.1353 1.125,-1.375 2.76703,-1.1147 2.76703,-1.1147"
         style="fill:none;stroke:#000000;stroke-width:1px;stroke-linecap:butt;stroke-linejoin:miter;stroke-opacity:1" />
    </g>
    <path
       transform="matrix(0.94117646,0,0,-0.94117647,1.90286,1050.4525)"
       d="m 48,32 a 16,16 0 1 1 -32,0 16,16 0 1 1 32,0 z"
       sodipodi:ry="16"
       sodipodi:rx="16"
       sodipodi:cy="32"
       sodipodi:cx="32"
       id="path3373"
       style="fill:#ffdd55;stroke:#9a8c13;stroke-width:2;stroke-miterlimit:4;stroke-opacity:1;stroke-dasharray:none"
       sodipodi:type="arc" />
    <g
       id="g4588">
      <path
         sodipodi:type="arc"
         style="fill:#fff2c2;stroke:#5c540c;stroke-width:2;stroke-miterlimit:4;stroke-opacity:1;stroke-dasharray:none;fill-opacity:1"
         id="path3302"
         sodipodi:cx="32"
         sodipodi:cy="32"
         sodipodi:rx="16"
         sodipodi:ry="16"
         d="m 48,32 a 16,16 0 1 1 -32,0 16,16 0 1 1 32,0 z"
         transform="matrix(0.94117646,0,0,-0.94117647,1.5493,922.46613)" />
      <path
         transform="translate(-0.58305,860.09851)"
         d="m 28.991377,29.528543 a 1.2374369,1.2374369 0 1 1 -2.474873,0 1.2374369,1.2374369 0 1 1 2.474873,0 z"
         sodipodi:ry="1.2374369"
         sodipodi:rx="1.2374369"
         sodipodi:cy="29.528543"
         sodipodi:cx="27.753941"
         id="path3304"
         style="fill:#000000;fill-opacity:1;stroke:none"
         sodipodi:type="arc" />
      <path
         sodipodi:type="arc"
         style="fill:#000000;fill-opacity:1;stroke:none"
         id="path3306"
         sodipodi:cx="27.753941"
         sodipodi:cy="29.528543"
         sodipodi:rx="1.2374369"
         sodipodi:ry="1.2374369"
         d="m 28.991377,29.528543 a 1.2374369,1.2374369 0 1 1 -2.474873,0 1.2374369,1.2374369 0 1 1 2.474873,0 z"
         transform="translate(7.54868,860.09851)" />
      <path
         style="fill:none;stroke:#000000;stroke-width:1.3;stroke-linecap:butt;stroke-linejoin:miter;stroke-opacity:1;stroke-miterlimit:4;stroke-dasharray:none"
         d="m 25.349464,897.50179 c 0,0 0.5,2.5 5.75,2.5 5,-0.25 5.5,-2.5 5.5,-2.5"
         id="path4200"
         inkscape:connector-curvature="0"
         sodipodi:nodetypes="ccc" />
      <g
         id="g4182">
        <path
           style="fill:none;stroke:#000000;stroke-width:1px;stroke-linecap:butt;stroke-linejoin:miter;stroke-opacity:1"
           d="m 22.98097,886.54564 7.778175,0 c 0.176777,3.18198 1.235908,6.96713 -3.181981,7.07107 -6.011343,0.14143 -4.419417,-2.47488 -4.596194,-7.07107 z"
           id="path4172"
           inkscape:connector-curvature="0"
           sodipodi:nodetypes="ccsc" />
        <path
           style="fill:none;stroke:#000000;stroke-width:1px;stroke-linecap:butt;stroke-linejoin:miter;stroke-opacity:1"
           d="m 22.627418,886.36886 -4.137647,-2.34839 c -1.944544,-1.23744 -2.579868,1.28773 -2.579868,1.28773"
           id="path4174"
           inkscape:connector-curvature="0"
           sodipodi:nodetypes="ccc" />
        <path
           sodipodi:nodetypes="ccsc"
           inkscape:connector-curvature="0"
           id="path4176"
           d="m 40.012111,886.54564 -7.778175,0 c -0.176777,3.18198 -1.235908,6.96713 3.181981,7.07107 6.011343,0.14143 4.419417,-2.47488 4.596194,-7.07107 z"
           style="fill:none;stroke:#000000;stroke-width:1px;stroke-linecap:butt;stroke-linejoin:miter;stroke-opacity:1" />
        <path
           sodipodi:nodetypes="ccc"
           inkscape:connector-curvature="0"
           id="path4178"
           d="m 40.365663,886.36886 4.137647,-2.34839 c 1.944544,-1.23744 2.579868,1.28773 2.579868,1.28773"
           style="fill:none;stroke:#000000;stroke-width:1px;stroke-linecap:butt;stroke-linejoin:miter;stroke-opacity:1" />
      </g>
      <path
         sodipodi:nodetypes="ccccc"
         inkscape:connector-curvature="0"
         id="path4180"
         d="m 25.102291,883.36366 c 0,0 -3.358758,1.41421 -5.480078,-0.70711 -2.65165,-2.12132 0.487437,-7.33363 0.487437,-7.33363 4.242641,-2.65165 6.053301,-2.06434 6.053301,2.56066 0,0 3.535534,2.47488 -1.06066,5.48008 z"
         style="fill:#b3761a;fill-opacity:1;stroke:#000000;stroke-width:1px;stroke-linecap:butt;stroke-linejoin:miter;stroke-opacity:1" />
      <path
         sodipodi:nodetypes="ccscsc"
         transform="translate(0,732.36218)"
         inkscape:connector-curvature="0"
         id="path4188"
         d="m 28.284272,145.5214 c -1.944544,-2.47487 -1.082107,-5.16053 1.392766,-5.16053 6.540738,1.23743 13.590773,-2.17051 15.249369,-0.65013 2.12132,1.94455 -0.02513,10.40685 -4.09099,11.11396 -1.767767,0.17677 -5.480078,-2.47487 -9.369165,-2.29809 -3.518618,0.15993 -3.18198,-3.00521 -3.18198,-3.00521 z"
         style="fill:#b3761a;fill-opacity:1;stroke:#000000;stroke-width:1px;stroke-linecap:butt;stroke-linejoin:miter;stroke-opacity:1" />
    </g>
    <path
       style="fill:#eec836;fill-opacity:1;stroke:#000000;stroke-width:1;stroke-miterlimit:4;stroke-opacity:1;stroke-dasharray:none"
       d="m 96.375,864.61218 c -10.631481,0 -19.25,4.02944 -19.25,9 0,2.10516 1.566199,4.02958 4.15625,5.5625 -2.590051,1.53292 -4.15625,3.45734 -4.15625,5.5625 0,4.97056 8.618519,9 19.25,9 10.63148,0 19.25,-4.02944 19.25,-9 0,-2.10516 -1.5662,-4.02958 -4.15625,-5.5625 2.59005,-1.53292 4.15625,-3.45734 4.15625,-5.5625 0,-4.97056 -8.61852,-9 -19.25,-9 z"
       id="path4243"
       inkscape:connector-curvature="0" />
    <path
       sodipodi:type="arc"
       style="fill:#fff2c2;fill-opacity:1;stroke:#5c540c;stroke-width:2;stroke-miterlimit:4;stroke-opacity:1;stroke-dasharray:none"
       id="path4214"
       sodipodi:cx="32"
       sodipodi:cy="32"
       sodipodi:rx="16"
       sodipodi:ry="16"
       d="m 48,32 a 16,16 0 1 1 -32,0 16,16 0 1 1 32,0 z"
       transform="matrix(0.94117646,0,0,-0.94117647,65.896017,922.46613)" />
    <path
       sodipodi:nodetypes="ccc"
       inkscape:connector-curvature="0"
       id="path4230"
       d="m 89.368815,888.54943 c 0,0 0.201322,1.52972 2.315196,1.52972 2.013213,-0.15297 2.214535,-1.52972 2.214535,-1.52972"
       style="fill:none;stroke:#000000;stroke-width:0.64526886;stroke-linecap:butt;stroke-linejoin:miter;stroke-miterlimit:4;stroke-opacity:1;stroke-dasharray:none" />
    <path
       style="fill:none;stroke:#000000;stroke-width:0.64526886;stroke-linecap:butt;stroke-linejoin:miter;stroke-miterlimit:4;stroke-opacity:1;stroke-dasharray:none"
       d="m 97.493815,888.42443 c 0,0 0.201322,1.52972 2.315196,1.52972 2.013209,-0.15297 2.214539,-1.52972 2.214539,-1.52972"
       id="path4232"
       inkscape:connector-curvature="0"
       sodipodi:nodetypes="ccc" />
    <path
       style="fill:none;stroke:#000000;stroke-width:1.10000002;stroke-linecap:butt;stroke-linejoin:miter;stroke-miterlimit:4;stroke-opacity:1;stroke-dasharray:none"
       d="m 87.357221,896.06968 c 0,0 0.741241,3.73922 8.524268,3.73922 7.412411,-0.37393 8.153651,-3.73922 8.153651,-3.73922"
       id="path4220"
       inkscape:connector-curvature="0"
       sodipodi:nodetypes="ccc" />
    <path
       style="fill:#eeee36;fill-opacity:1;stroke:#000000;stroke-width:0.30000001;stroke-miterlimit:4;stroke-opacity:1;stroke-dasharray:none"
       d="m 81.375,889.48718 c -1.932997,0 -3.5,1.567 -3.5,3.5 0,1.933 1.567003,3.5 3.5,3.5 1.932997,0 3.5,-1.567 3.5,-3.5 0,-1.933 -1.567003,-3.5 -3.5,-3.5 z m 0,1 c 1.453381,0 2.625,1.11929 2.625,2.5 0,1.38071 -1.171619,2.5 -2.625,2.5 -1.453381,0 -2.625,-1.11929 -2.625,-2.5 0,-1.38071 1.171619,-2.5 2.625,-2.5 z"
       id="path4234"
       inkscape:connector-curvature="0" />
    <path
       inkscape:connector-curvature="0"
       id="path4241"
       d="m 111,889.48668 c -1.933,0 -3.5,1.567 -3.5,3.5 0,1.933 1.567,3.5 3.5,3.5 1.933,0 3.5,-1.567 3.5,-3.5 0,-1.933 -1.567,-3.5 -3.5,-3.5 z m 0,1 c 1.45338,0 2.625,1.11929 2.625,2.5 0,1.38071 -1.17162,2.5 -2.625,2.5 -1.45338,0 -2.625,-1.11929 -2.625,-2.5 0,-1.38071 1.17162,-2.5 2.625,-2.5 z"
       style="fill:#eeee36;fill-opacity:1;stroke:#000000;stroke-width:0.30000001;stroke-miterlimit:4;stroke-opacity:1;stroke-dasharray:none" />
    <path
       sodipodi:type="arc"
       style="fill:#eec836;fill-opacity:1;stroke:#000000;stroke-width:1;stroke-miterlimit:4;stroke-opacity:1;stroke-dasharray:none"
       id="path4248"
       sodipodi:cx="96"
       sodipodi:cy="145.5"
       sodipodi:rx="12.75"
       sodipodi:ry="5.875"
       d="m 108.75,145.5 a 12.75,5.875 0 1 1 -25.5,0 12.75,5.875 0 1 1 25.5,0 z"
       transform="translate(0,732.36218)" />
    <rect
       style="fill:#eec836;fill-opacity:1;stroke:none"
       id="rect4250"
       width="27.75"
       height="10.75"
       x="82.5"
       y="870.23718" />
    <g
       id="g4612">
      <path
         sodipodi:type="arc"
         style="fill:#fff2c2;fill-opacity:1;stroke:#5c540c;stroke-width:2;stroke-miterlimit:4;stroke-opacity:1;stroke-dasharray:none"
         id="path4222"
         sodipodi:cx="32"
         sodipodi:cy="32"
         sodipodi:rx="16"
         sodipodi:ry="16"
         d="m 48,32 a 16,16 0 1 1 -32,0 16,16 0 1 1 32,0 z"
         transform="matrix(0.94117646,0,0,-0.94117647,129.88918,922.81968)" />
      <path
         transform="translate(127.75683,860.45206)"
         d="m 28.991377,29.528543 a 1.2374369,1.2374369 0 1 1 -2.474873,0 1.2374369,1.2374369 0 1 1 2.474873,0 z"
         sodipodi:ry="1.2374369"
         sodipodi:rx="1.2374369"
         sodipodi:cy="29.528543"
         sodipodi:cx="27.753941"
         id="path4224"
         style="fill:#000000;fill-opacity:1;stroke:none"
         sodipodi:type="arc" />
      <path
         sodipodi:type="arc"
         style="fill:#000000;fill-opacity:1;stroke:none"
         id="path4226"
         sodipodi:cx="27.753941"
         sodipodi:cy="29.528543"
         sodipodi:rx="1.2374369"
         sodipodi:ry="1.2374369"
         d="m 28.991377,29.528543 a 1.2374369,1.2374369 0 1 1 -2.474873,0 1.2374369,1.2374369 0 1 1 2.474873,0 z"
         transform="translate(135.88856,860.45206)" />
      <path
         sodipodi:nodetypes="ccccccccc"
         inkscape:connector-curvature="0"
         id="rect4252"
         d="m 179.5623,892.42479 c 0,0 0.25,3.125 -4,3.375 -4.75,-0.25 -4.25,-3.625 -4.25,-3.625 0,0 0,-10.25 -11.25,-10.25 -12.25,0.25 -11.375,10.375 -11.375,10.375 0,0 0.5,3.875 -3.75,4 -4.5,0 -4.125,-4 -4.125,-4 0,0 -1,-19.5 19.625,-19.5 18.75,-0.125 19.125,19.625 19.125,19.625 z"
         style="fill:#eec836;fill-opacity:1;stroke:#000000;stroke-opacity:1" />
      <path
         sodipodi:nodetypes="ccccccc"
         inkscape:connector-curvature="0"
         id="rect4256"
         d="m 158.125,895.31485 c 0,0 0.73744,1.60983 1.75,1.60983 1.7045,0 1.875,-1.625 1.875,-1.625 l 1.625,3.375 c 0,0 -0.25,0.25 -3.375,0.375 -3.75,0 -3.375,-0.625 -3.375,-0.625 z"
         style="fill:#eec836;fill-opacity:1;stroke:#000000;stroke-width:1;stroke-miterlimit:4;stroke-opacity:1;stroke-dasharray:none" />
      <path
         sodipodi:nodetypes="ccc"
         inkscape:connector-curvature="0"
         id="path4259"
         d="m 152.62868,899.97666 c 0,0 0.5,2.5 5.75,2.5 5,-0.25 7.53293,-0.37868 7.53293,-0.37868"
         style="fill:none;stroke:#000000;stroke-width:1.29999995;stroke-linecap:butt;stroke-linejoin:miter;stroke-miterlimit:4;stroke-opacity:1;stroke-dasharray:none" />
    </g>
    <g
       id="g4637">
      <rect
         y="947.36218"
         x="85"
         height="12"
         width="23"
         id="rect4281"
         style="fill:#ffdd55;fill-opacity:1;stroke:none" />
      <path
         inkscape:connector-curvature="0"
         id="path4263"
         d="m 96.28125,937.65215 c -10.313485,0 -18.678777,8.36529 -18.678777,18.67878 0,1.33123 0.161464,2.62288 0.426279,3.87526 3.833634,2.28781 6.684994,6.47744 7.59552,11.47079 3.019952,2.09905 6.700501,3.33273 10.656978,3.33273 3.62134,0 6.98002,-1.04403 9.84317,-2.82895 0.78958,-5.71394 4.09468,-10.48747 8.56434,-12.74962 0.16993,-1.01235 0.27127,-2.03968 0.27127,-3.10021 0,-10.31349 -8.36529,-18.67878 -18.67878,-18.67878 z m -6.897971,9.45565 c 2.472447,-0.002 5.519756,2.89206 5.619134,6.16167 0,2.73952 -2.22082,4.96034 -4.960339,4.96034 -2.73952,0 -3.720255,-4.70099 -3.720255,-7.44051 0.292507,-2.647 1.577991,-3.68056 3.06146,-3.6815 z m 12.168331,1.4726 c 2.50228,-0.27417 5.4047,1.77585 5.50288,5.69664 0,3.28513 -4.03667,4.84408 -6.74296,4.84408 -2.706301,0 -2.170153,-4.15537 -2.170153,-7.44051 0.518654,-1.91946 1.908863,-2.93571 3.410233,-3.10021 z"
         style="fill:#8d7000;fill-opacity:1;stroke:#000000;stroke-width:0.99206781000000011;stroke-miterlimit:4;stroke-opacity:1;stroke-dasharray:none" />
      <rect
         y="965.64545"
         x="89.098442"
         height="2.8061543"
         width="14.85256"
         id="rect4269"
         style="fill:#000000;fill-opacity:1;stroke:none" />
      <path
         inkscape:connector-curvature="0"
         id="path4303"
         d="m 89.178582,967.07278 14.156348,0"
         style="fill:none;stroke:#f4f4f4;stroke-width:2.83412718999999980;stroke-linecap:butt;stroke-linejoin:miter;stroke-miterlimit:4;stroke-opacity:1;stroke-dasharray:2.83412703999999982, 2.83412703999999982;stroke-dashoffset:0" />
      <path
         transform="translate(64.02051,924.09167)"
         d="m 28.991377,29.528543 a 1.2374369,1.2374369 0 1 1 -2.474873,0 1.2374369,1.2374369 0 1 1 2.474873,0 z"
         sodipodi:ry="1.2374369"
         sodipodi:rx="1.2374369"
         sodipodi:cy="29.528543"
         sodipodi:cx="27.753941"
         id="path4265"
         style="fill:#000000;fill-opacity:1;stroke:none"
         sodipodi:type="arc" />
      <path
         sodipodi:type="arc"
         style="fill:#000000;fill-opacity:1;stroke:none"
         id="path4267"
         sodipodi:cx="27.753941"
         sodipodi:cy="29.528543"
         sodipodi:rx="1.2374369"
         sodipodi:ry="1.2374369"
         d="m 28.991377,29.528543 a 1.2374369,1.2374369 0 1 1 -2.474873,0 1.2374369,1.2374369 0 1 1 2.474873,0 z"
         transform="translate(72.15224,924.09167)" />
      <path
         sodipodi:nodetypes="cc"
         transform="translate(0,732.36218)"
         inkscape:connector-curvature="0"
         id="path4299"
         d="m 99,223 c 2.15319,-0.24603 3.43424,0.50617 5.25,1.5"
         style="fill:none;stroke:#000000;stroke-width:0.4;stroke-linecap:butt;stroke-linejoin:miter;stroke-miterlimit:4;stroke-opacity:1;stroke-dasharray:none" />
      <path
         inkscape:connector-curvature="0"
         id="path4305"
         d="m 104.0778,968.47043 c -0.71072,0 -0.97009,2.19406 -1.02562,1.98425 0.0243,0.0508 0.12307,2.29429 0.12307,2.29429 l 2.13329,0 c 0,0 0.041,-0.92129 0.041,-1.79823 0,-0.87692 -0.22746,-2.56802 -1.27177,-2.48031 z m 0.20512,0.8061 c 0.3845,0 0.6564,0.39736 0.6564,0.93011 0,0.53276 -0.2719,0.99213 -0.6564,0.99213 -0.3845,0 -0.69742,-0.45937 -0.69742,-0.99213 0,-0.53275 0.31292,-0.93011 0.69742,-0.93011 z"
         style="fill:#d1d1d1;fill-opacity:1;stroke:none" />
    </g>
    <g
       id="g4647">
      <path
         sodipodi:type="arc"
         style="fill:#ffdd55;stroke:#9a8c13;stroke-width:2;stroke-miterlimit:4;stroke-opacity:1;stroke-dasharray:none"
         id="path4329"
         sodipodi:cx="32"
         sodipodi:cy="32"
         sodipodi:rx="16"
         sodipodi:ry="16"
         d="m 48,32 a 16,16 0 1 1 -32,0 16,16 0 1 1 32,0 z"
         transform="matrix(0.94117646,0,0,-0.94117647,129.90286,986.45929)" />
      <path
         transform="translate(127.77051,924.09167)"
         d="m 28.991377,29.528543 a 1.2374369,1.2374369 0 1 1 -2.474873,0 1.2374369,1.2374369 0 1 1 2.474873,0 z"
         sodipodi:ry="1.2374369"
         sodipodi:rx="1.2374369"
         sodipodi:cy="29.528543"
         sodipodi:cx="27.753941"
         id="path4331"
         style="fill:#000000;fill-opacity:1;stroke:none"
         sodipodi:type="arc" />
      <path
         sodipodi:type="arc"
         style="fill:#000000;fill-opacity:1;stroke:none"
         id="path4333"
         sodipodi:cx="27.753941"
         sodipodi:cy="29.528543"
         sodipodi:rx="1.2374369"
         sodipodi:ry="1.2374369"
         d="m 28.991377,29.528543 a 1.2374369,1.2374369 0 1 1 -2.474873,0 1.2374369,1.2374369 0 1 1 2.474873,0 z"
         transform="translate(135.90224,924.09167)" />
      <rect
         y="962.28223"
         x="153.93346"
         height="1.4142135"
         width="11.313708"
         id="rect4335"
         style="fill:#000000;fill-opacity:1;stroke:none" />
      <path
         style="fill:#ff43ee;fill-opacity:1;stroke:#000000;stroke-width:1px;stroke-linecap:butt;stroke-linejoin:miter;stroke-opacity:1"
         d="m 143.375,944.73718 c 0.38952,3.81082 7.51676,6.36388 16.75,0.375 4.5,-1.25 10.75,1.5 10.75,1.5 9.98152,-2.256 1.75061,-10.10723 -7.625,-14.625 7.8689,6.04276 -0.83745,5.46407 -4.88432,5.82916 -9.34342,0.84294 -15.57991,3.80971 -14.99068,6.92084 z"
         id="path4354"
         inkscape:connector-curvature="0"
         sodipodi:nodetypes="ccccsc" />
      <path
         transform="translate(0,732.36218)"
         inkscape:connector-curvature="0"
         id="path4364"
         d="m 149.75,211.75 c 0.25,-0.33333 0.41667,-1.25 0.75,-1 0.33333,0.25 -1.12268,1.18634 -0.75,1 0.41667,-0.41667 0.83333,-0.83333 1.25,-1.25 0.0833,0 0.17094,0.0264 0.25,0 1.81085,-0.60362 -0.39415,0.0721 0.75,-0.5 0.14907,-0.0745 0.35093,0.0745 0.5,0 0.10541,-0.0527 0.1382,-0.21273 0.25,-0.25 0.23717,-0.0791 0.5,0 0.75,0 0.41667,0 0.83333,0 1.25,0 1.83333,0 3.66667,0 5.5,0 0.83333,0 1.66667,0 2.5,0 0.11259,0 0.67392,0.038 0.75,0 0.10541,-0.0527 0.14459,-0.1973 0.25,-0.25 0.0745,-0.0373 0.17546,0.0373 0.25,0 0.10541,-0.0527 0.14459,-0.1973 0.25,-0.25 0.0745,-0.0373 0.19107,0.0589 0.25,0 0.0589,-0.0589 -0.0589,-0.19107 0,-0.25 2.4e-4,-2.4e-4 0.74887,3.8e-4 0.75,0 0.22361,-0.0745 0.28918,-0.39459 0.5,-0.5 0.14907,-0.0745 0.38215,0.11785 0.5,0 0.0589,-0.0589 -0.0589,-0.19107 0,-0.25 0.0589,-0.0589 0.19107,0.0589 0.25,0 0.0589,-0.0589 -0.0589,-0.19107 0,-0.25 0.0589,-0.0589 0.17546,0.0373 0.25,0 1.04044,-0.52022 -0.26726,0.0173 0.25,-0.5 0.0589,-0.0589 0.17546,0.0373 0.25,0 0.10541,-0.0527 0.14459,-0.1973 0.25,-0.25 0.0745,-0.0373 0.16667,0 0.25,0 0.0833,0 0.16667,0 0.25,0 0.41667,0 0.83333,0 1.25,0 0.25,0 0.51283,0.0791 0.75,0 0.1118,-0.0373 0.1973,-0.14459 0.25,-0.25 0.0413,-0.0825 0.007,-1.23567 0,-1.25 -0.0527,-0.10541 -0.1973,-0.14459 -0.25,-0.25 -0.0373,-0.0745 0.0589,-0.19107 0,-0.25 -0.0589,-0.0589 -0.25,0.0833 -0.25,0 0,-0.0833 0.17546,-0.0373 0.25,0 0.82915,0.82915 -0.2357,-0.11785 0.5,0.25 0.21082,0.10541 0.28918,0.39459 0.5,0.5 0.0745,0.0373 0.21273,-0.0745 0.25,0 0.16667,0.33333 -0.16667,0.91667 0,1.25 0.0373,0.0745 0.19107,-0.0589 0.25,0 0.125,0.125 -0.125,0.625 0,0.75 0.0589,0.0589 0.19107,-0.0589 0.25,0 0.0589,0.0589 -0.0373,0.17546 0,0.25 0.0527,0.10541 0.1973,0.14459 0.25,0.25 0.13333,0.26667 -0.13333,0.23333 0,0.5 0.0527,0.10541 0.1973,0.14459 0.25,0.25 0.0329,0.0657 0,0.86927 0,1 0,0.0833 0.0589,0.19107 0,0.25 -0.34351,0.34351 -0.82588,0.25 -1.25,0.25 -0.19678,0 -1.22993,0.0201 -1.25,0 -0.125,-0.125 0.125,-0.625 0,-0.75 -0.0589,-0.0589 -0.19107,0.0589 -0.25,0 -0.0589,-0.0589 0,-0.16667 0,-0.25 -0.16667,0 -0.35093,0.0745 -0.5,0 -0.0745,-0.0373 0.0589,-0.19107 0,-0.25 -0.008,-0.008 -0.68937,0 -0.75,0 -0.66667,0 -1.33333,0 -2,0 -0.0833,0 -0.19107,-0.0589 -0.25,0 -0.0589,0.0589 0.0589,0.19107 0,0.25 -0.0589,0.0589 -0.16667,0 -0.25,0 -0.0833,0 -0.16667,0 -0.25,0 -0.0918,0 -0.98994,-0.0101 -1,0 -0.0589,0.0589 0.0589,0.19107 0,0.25 -0.0773,0.0773 -1.17336,-0.0766 -1.25,0 -0.0589,0.0589 0.0589,0.19107 0,0.25 -0.0589,0.0589 -0.17546,-0.0373 -0.25,0 -0.10541,0.0527 -0.14459,0.1973 -0.25,0.25 -0.14907,0.0745 -0.35093,-0.0745 -0.5,0 -0.10541,0.0527 -0.14459,0.1973 -0.25,0.25 -0.056,0.028 -0.94059,0 -1,0 -0.91667,0 -1.83333,0 -2.75,0 -0.16667,0 -0.33333,0 -0.5,0 -0.0833,0 -0.17546,-0.0373 -0.25,0 -0.10541,0.0527 -0.14459,0.1973 -0.25,0.25 -0.15713,0.0786 -0.84287,-0.0786 -1,0 -0.10541,0.0527 -0.14459,0.1973 -0.25,0.25 -0.0745,0.0373 -0.19107,-0.0589 -0.25,0 -0.0589,0.0589 0.0589,0.19107 0,0.25 -0.11785,0.11785 -0.38215,-0.11785 -0.5,0 -0.0589,0.0589 0.0589,0.19107 0,0.25 -0.0589,0.0589 -0.19107,-0.0589 -0.25,0 -0.0589,0.0589 0.0589,0.19107 0,0.25 -0.0589,0.0589 -0.19107,-0.0589 -0.25,0 -0.51726,0.51726 0.79044,-0.0202 -0.25,0.5 -0.0745,0.0373 -0.19107,-0.0589 -0.25,0 -0.0589,0.0589 0.0589,0.19107 0,0.25 -0.0589,0.0589 -0.19107,-0.0589 -0.25,0 -0.0589,0.0589 0.0589,0.19107 0,0.25 -0.13176,0.13176 -0.32322,0.19107 -0.5,0.25 -0.15811,0.0527 -0.38215,-0.11785 -0.5,0 -0.0589,0.0589 0.0589,0.19107 0,0.25 -0.0589,0.0589 -0.16667,0 -0.25,0 -0.33333,0 -0.66667,0 -1,0 -0.5,0 -1,0 -1.5,0 -0.11259,0 -0.67392,-0.038 -0.75,0 -0.10541,0.0527 -0.14459,0.1973 -0.25,0.25 -0.0991,0.0496 -0.69889,-0.0511 -0.75,0 -0.0589,0.0589 0.0589,0.19107 0,0.25 -0.0589,0.0589 -0.16667,0 -0.25,0 -0.5,0 -1,0 -1.5,0 -0.16667,0 -0.33333,0 -0.5,0 -0.0833,0 -0.19107,0.0589 -0.25,0 -0.0589,-0.0589 0,-0.16667 0,-0.25 0,-0.41667 0,-0.83333 0,-1.25 0,-0.16667 -0.0745,-0.35093 0,-0.5 0.0373,-0.0745 0.16667,0 0.25,0 0.5,0 1,0 1.5,0 0.26883,0 0.71841,0.0563 1,0 0.33692,-0.0674 0.66667,-0.16667 1,-0.25 z"
         style="fill:#ff9ef6;stroke:none;stroke-width:1px;stroke-linecap:butt;stroke-linejoin:miter;stroke-opacity:1;fill-opacity:1" />
      <path
         transform="matrix(1.5439283,0,0,1.4351426,-102.10145,642.66743)"
         d="m 168.0625,224.75 a 0.8125,0.8125 0 1 1 -1.625,0 0.8125,0.8125 0 1 1 1.625,0 z"
         sodipodi:ry="0.8125"
         sodipodi:rx="0.8125"
         sodipodi:cy="224.75"
         sodipodi:cx="167.25"
         id="path4370"
         style="fill:#7c7c7c;fill-opacity:1;stroke:none"
         sodipodi:type="arc" />
      <path
         sodipodi:type="arc"
         style="fill:#7c7c7c;fill-opacity:1;stroke:none"
         id="path4372"
         sodipodi:cx="167.25"
         sodipodi:cy="224.75"
         sodipodi:rx="0.8125"
         sodipodi:ry="0.8125"
         d="m 168.0625,224.75 a 0.8125,0.8125 0 1 1 -1.625,0 0.8125,0.8125 0 1 1 1.625,0 z"
         transform="matrix(1.4351426,0,0,1.4351426,-76.486552,642.72993)" />
      <path
         sodipodi:type="arc"
         style="fill:#7c7c7c;fill-opacity:1;stroke:none"
         id="path4374"
         sodipodi:cx="167.25"
         sodipodi:cy="224.75"
         sodipodi:rx="0.8125"
         sodipodi:ry="0.8125"
         d="m 168.0625,224.75 a 0.8125,0.8125 0 1 1 -1.625,0 0.8125,0.8125 0 1 1 1.625,0 z"
         transform="matrix(1.2816901,0,0,1.4,-45.446303,633.66218)" />
      <path
         transform="matrix(1.2816901,0,0,1.4,-43.283451,636.72468)"
         d="m 168.0625,224.75 a 0.8125,0.8125 0 1 1 -1.625,0 0.8125,0.8125 0 1 1 1.625,0 z"
         sodipodi:ry="0.8125"
         sodipodi:rx="0.8125"
         sodipodi:cy="224.75"
         sodipodi:cx="167.25"
         id="path4376"
         style="fill:#7c7c7c;fill-opacity:1;stroke:none"
         sodipodi:type="arc" />
      <path
         sodipodi:type="arc"
         style="fill:#7c7c7c;fill-opacity:1;stroke:none"
         id="path4378"
         sodipodi:cx="167.25"
         sodipodi:cy="224.75"
         sodipodi:rx="0.8125"
         sodipodi:ry="0.8125"
         d="m 168.0625,224.75 a 0.8125,0.8125 0 1 1 -1.625,0 0.8125,0.8125 0 1 1 1.625,0 z"
         transform="matrix(1.2816901,0,0,1.4,-41.841549,640.13718)" />
    </g>
    <g
       id="g4660">
      <path
         sodipodi:nodetypes="csccssscc"
         inkscape:connector-curvature="0"
         id="path4382"
         d="m 46.140625,32 c 0,8.836556 -5.304069,16 -14.140625,16 -8.836556,0 -14.671875,-7.429069 -14.671875,-16.265625 -1.749056,-2.939407 -3.619616,-8.557122 -1.569811,-11.644239 1.78222,-2.509651 5.474495,-3.47942 9.306772,-3.854151 C 27.466993,16.00112 25.68751,14.11236 32,13.875 c 4.643367,-0.174598 3.89353,2.18606 6.116844,2.427373 3.47342,0.377001 7.005632,1.193961 8.76321,2.905402 C 49.845674,23.048653 48.830916,27.82885 46.140625,32 z"
         style="fill:#ffdd55;stroke:#9a8c13;stroke-width:1.99962497;stroke-miterlimit:4;stroke-opacity:1;stroke-dasharray:none"
         transform="matrix(0.94117646,0,0,-0.94117647,193.90286,986.45929)" />
      <path
         transform="translate(191.77051,924.09167)"
         d="m 28.991377,29.528543 a 1.2374369,1.2374369 0 1 1 -2.474873,0 1.2374369,1.2374369 0 1 1 2.474873,0 z"
         sodipodi:ry="1.2374369"
         sodipodi:rx="1.2374369"
         sodipodi:cy="29.528543"
         sodipodi:cx="27.753941"
         id="path4384"
         style="fill:#000000;fill-opacity:1;stroke:none"
         sodipodi:type="arc" />
      <path
         sodipodi:type="arc"
         style="fill:#000000;fill-opacity:1;stroke:none"
         id="path4386"
         sodipodi:cx="27.753941"
         sodipodi:cy="29.528543"
         sodipodi:rx="1.2374369"
         sodipodi:ry="1.2374369"
         d="m 28.991377,29.528543 a 1.2374369,1.2374369 0 1 1 -2.474873,0 1.2374369,1.2374369 0 1 1 2.474873,0 z"
         transform="translate(199.90224,924.09167)" />
      <path
         sodipodi:nodetypes="ccc"
         inkscape:connector-curvature="0"
         id="path4402"
         d="m 218.34946,961.25179 c 0,0 0.5,2.5 5.75,2.5 5,-0.25 5.5,-2.5 5.5,-2.5"
         style="fill:none;stroke:#000000;stroke-width:1.29999995;stroke-linecap:butt;stroke-linejoin:miter;stroke-miterlimit:4;stroke-opacity:1;stroke-dasharray:none" />
      <path
         transform="translate(0,732.36218)"
         inkscape:connector-curvature="0"
         id="path4406"
         d="m 210.5,224.5 2.25,0.75"
         style="fill:none;stroke:#9a8c13;stroke-width:1px;stroke-linecap:butt;stroke-linejoin:miter;stroke-opacity:1" />
      <path
         style="fill:none;stroke:#9a8c13;stroke-width:1px;stroke-linecap:butt;stroke-linejoin:miter;stroke-opacity:1"
         d="m 236.875,956.86218 -2.25,0.75"
         id="path4408"
         inkscape:connector-curvature="0" />
    </g>
    <g
       id="g4620">
      <g
         id="g4488">
        <path
           style="fill:#000000;stroke:#000000;stroke-width:1px;stroke-linecap:butt;stroke-linejoin:miter;stroke-opacity:1;fill-opacity:1"
           d="m 22.273864,237.26851 c 0,0 4.419417,3.0052 9.545941,3.0052 5.126524,0 9.722718,-3.35876 9.722718,-3.35876 l 1.237437,3.88909 c 0,0 -6.187184,3.71231 -10.606601,3.71231 -4.419418,0 -10.960156,-3.35876 -10.960156,-3.35876 z"
           id="path4474"
           inkscape:connector-curvature="0"
           transform="translate(0,732.36218)" />
        <path
           sodipodi:type="arc"
           style="fill:#ffffff;fill-opacity:1;stroke:none"
           id="path4476"
           sodipodi:cx="24.218407"
           sodipodi:cy="240.27371"
           sodipodi:rx="1.4142135"
           sodipodi:ry="1.4142135"
           d="m 25.63262,240.27371 a 1.4142135,1.4142135 0 1 1 -2.828427,0 1.4142135,1.4142135 0 1 1 2.828427,0 z"
           transform="translate(-0.70710678,731.83185)" />
        <path
           transform="translate(2.6516504,733.06929)"
           d="m 25.63262,240.27371 a 1.4142135,1.4142135 0 1 1 -2.828427,0 1.4142135,1.4142135 0 1 1 2.828427,0 z"
           sodipodi:ry="1.4142135"
           sodipodi:rx="1.4142135"
           sodipodi:cy="240.27371"
           sodipodi:cx="24.218407"
           id="path4478"
           style="fill:#ffffff;fill-opacity:1;stroke:none"
           sodipodi:type="arc" />
        <path
           sodipodi:type="arc"
           style="fill:#ffffff;fill-opacity:1;stroke:none"
           id="path4480"
           sodipodi:cx="24.218407"
           sodipodi:cy="240.27371"
           sodipodi:rx="1.4142135"
           sodipodi:ry="1.4142135"
           d="m 25.63262,240.27371 a 1.4142135,1.4142135 0 1 1 -2.828427,0 1.4142135,1.4142135 0 1 1 2.828427,0 z"
           transform="translate(6.1871843,733.95317)" />
        <path
           transform="translate(9.5459414,733.95317)"
           d="m 25.63262,240.27371 a 1.4142135,1.4142135 0 1 1 -2.828427,0 1.4142135,1.4142135 0 1 1 2.828427,0 z"
           sodipodi:ry="1.4142135"
           sodipodi:rx="1.4142135"
           sodipodi:cy="240.27371"
           sodipodi:cx="24.218407"
           id="path4482"
           style="fill:#ffffff;fill-opacity:1;stroke:none"
           sodipodi:type="arc" />
        <path
           sodipodi:type="arc"
           style="fill:#ffffff;fill-opacity:1;stroke:none"
           id="path4484"
           sodipodi:cx="24.218407"
           sodipodi:cy="240.27371"
           sodipodi:rx="1.4142135"
           sodipodi:ry="1.4142135"
           d="m 25.63262,240.27371 a 1.4142135,1.4142135 0 1 1 -2.828427,0 1.4142135,1.4142135 0 1 1 2.828427,0 z"
           transform="translate(12.727922,733.24607)" />
        <path
           transform="translate(15.733126,732.18541)"
           d="m 25.63262,240.27371 a 1.4142135,1.4142135 0 1 1 -2.828427,0 1.4142135,1.4142135 0 1 1 2.828427,0 z"
           sodipodi:ry="1.4142135"
           sodipodi:rx="1.4142135"
           sodipodi:cy="240.27371"
           sodipodi:cx="24.218407"
           id="path4486"
           style="fill:#ffffff;fill-opacity:1;stroke:none"
           sodipodi:type="arc" />
      </g>
      <path
         transform="matrix(0.94117646,0,0,-0.94117647,1.90286,986.45929)"
         d="m 48,32 a 16,16 0 1 1 -32,0 16,16 0 1 1 32,0 z"
         sodipodi:ry="16"
         sodipodi:rx="16"
         sodipodi:cy="32"
         sodipodi:cx="32"
         id="path3359"
         style="fill:#ffdd55;stroke:#9a8c13;stroke-width:2;stroke-miterlimit:4;stroke-opacity:1;stroke-dasharray:none"
         sodipodi:type="arc" />
      <path
         sodipodi:type="arc"
         style="fill:#000000;fill-opacity:1;stroke:none"
         id="path3361"
         sodipodi:cx="27.753941"
         sodipodi:cy="29.528543"
         sodipodi:rx="1.2374369"
         sodipodi:ry="1.2374369"
         d="m 28.991377,29.528543 a 1.2374369,1.2374369 0 1 1 -2.474873,0 1.2374369,1.2374369 0 1 1 2.474873,0 z"
         transform="translate(-0.22949,924.09167)" />
      <path
         transform="translate(7.90224,924.09167)"
         d="m 28.991377,29.528543 a 1.2374369,1.2374369 0 1 1 -2.474873,0 1.2374369,1.2374369 0 1 1 2.474873,0 z"
         sodipodi:ry="1.2374369"
         sodipodi:rx="1.2374369"
         sodipodi:cy="29.528543"
         sodipodi:cx="27.753941"
         id="path3363"
         style="fill:#000000;fill-opacity:1;stroke:none"
         sodipodi:type="arc" />
      <rect
         style="fill:#000000;fill-opacity:1;stroke:none"
         id="rect3365"
         width="11.313708"
         height="1.4142135"
         x="25.933458"
         y="962.28223" />
      <path
         style="fill:#b3761a;stroke:#000000;stroke-width:1px;stroke-linecap:butt;stroke-linejoin:miter;stroke-opacity:1;fill-opacity:1"
         d="m 23.508472,958.89141 c -1.87132,2.90901 -1.43934,5.64644 0.0607,8.64644 0.537014,4.4609 4.702297,6.54096 8.602738,6.31091 3.764077,-0.22201 8.153247,-2.69259 8.359573,-6.34121 1.5,-3 2.62132,-5.4571 -0.21967,-8.61611 -1.316936,-1.52893 -5.144049,-1.09218 -8.844975,-1.08135 -3.530489,0.0103 -6.946146,-0.47827 -7.958326,1.08135 z m 0.93934,2.16421 c 2.474874,-1.59099 12.449747,-1.16421 14.571068,0.0732 1.59099,1.94455 -0.01777,3.70191 -0.01777,3.70191 -1.424858,0.93388 -2.681801,0.84353 -7.139583,1.07952 -4.288882,-0.22369 -6.365625,-0.90275 -6.365625,-0.90275 0,0 -2.10875,-1.65381 -1.04809,-3.9519 z"
         id="path4458"
         inkscape:connector-curvature="0"
         sodipodi:nodetypes="ccsccsccccccccc" />
      <path
         style="fill:#b3761a;fill-opacity:1;stroke:#000000;stroke-width:1px;stroke-linecap:butt;stroke-linejoin:miter;stroke-opacity:1"
         d="m 24.395184,948.41748 c 0,0 -3.358758,1.41421 -5.480078,-0.70711 -2.65165,-2.12132 0.487437,-5.91942 0.487437,-5.91942 3.535534,-1.76776 6.053301,-3.47855 6.053301,1.14645 0,0 3.535534,2.47488 -1.06066,5.48008 z"
         id="path4470"
         inkscape:connector-curvature="0"
         sodipodi:nodetypes="ccccc" />
      <path
         style="fill:#b3761a;fill-opacity:1;stroke:#000000;stroke-width:1px;stroke-linecap:butt;stroke-linejoin:miter;stroke-opacity:1"
         d="m 27.577165,942.9374 c -1.944544,-2.47487 -0.90533,-3.03921 1.215989,-4.09987 1.456128,0.27548 3.394074,-0.64362 4.45698,-0.57712 3.711533,0.23222 5.728976,0.78667 7.787185,1.69476 2.080954,0.91812 4.034718,2.42888 3.417542,5.13908 -0.486101,2.13462 -2.592222,2.84483 -4.326551,3.14645 -1.767767,0.17677 -5.480078,-2.47487 -9.369165,-2.29809 -3.518618,0.15993 -3.18198,-3.00521 -3.18198,-3.00521 z"
         id="path4472"
         inkscape:connector-curvature="0"
         sodipodi:nodetypes="ccssscsc" />
    </g>
    <path
       sodipodi:nodetypes="csccccc"
       inkscape:connector-curvature="0"
       id="path4497"
       d="m 107.09544,1020.6844 c 0,-8.3495 -1.20464,-14.8169 -10.749062,-15.1181 -9.542461,-0.3011 -11.152889,7.0196 -11.152889,15.3691 -1.329553,2.7774 -2.397914,8.2622 -0.839745,11.1792 2.687995,3.1489 4.400072,6.5045 11.992634,5.6958 5.946782,0.4275 8.677392,-2.0255 11.311142,-5.0389 2.25432,-3.6291 1.48296,-8.1459 -0.56208,-12.0871 z"
       style="fill:#c59d00;stroke:#151402;stroke-width:1.69468188000000008;stroke-miterlimit:4;stroke-opacity:1;stroke-dasharray:none;fill-opacity:1" />
    <path
       transform="translate(64.137736,988.43839)"
       d="m 28.991377,29.528543 a 1.2374369,1.2374369 0 1 1 -2.474873,0 1.2374369,1.2374369 0 1 1 2.474873,0 z"
       sodipodi:ry="1.2374369"
       sodipodi:rx="1.2374369"
       sodipodi:cy="29.528543"
       sodipodi:cx="27.753941"
       id="path4499"
       style="fill:#000000;fill-opacity:1;stroke:none"
       sodipodi:type="arc" />
    <path
       sodipodi:type="arc"
       style="fill:#000000;fill-opacity:1;stroke:none"
       id="path4501"
       sodipodi:cx="27.753941"
       sodipodi:cy="29.528543"
       sodipodi:rx="1.2374369"
       sodipodi:ry="1.2374369"
       d="m 28.991377,29.528543 a 1.2374369,1.2374369 0 1 1 -2.474873,0 1.2374369,1.2374369 0 1 1 2.474873,0 z"
       transform="translate(72.269466,988.43839)" />
    <path
       sodipodi:nodetypes="ccc"
       inkscape:connector-curvature="0"
       id="path4503"
       d="m 90.716686,1025.5985 c 0,0 0.5,2.5 5.75,2.5 5.000004,-0.25 5.500004,-2.5 5.500004,-2.5"
       style="fill:none;stroke:#000000;stroke-width:1.29999995;stroke-linecap:butt;stroke-linejoin:miter;stroke-miterlimit:4;stroke-opacity:1;stroke-dasharray:none" />
    <path
       inkscape:connector-curvature="0"
       id="path4505"
       d="m 85.426352,1021.207 1.817244,0.7529"
       style="fill:none;stroke:#000000;stroke-width:0.90046859000000001px;stroke-linecap:butt;stroke-linejoin:miter;stroke-opacity:1"
       sodipodi:nodetypes="cc" />
    <path
       style="fill:none;stroke:#000000;stroke-width:0.90046859000000001px;stroke-linecap:butt;stroke-linejoin:miter;stroke-opacity:1"
       d="m 106.72849,1021.207 -1.81724,0.7529"
       id="path4507"
       inkscape:connector-curvature="0"
       sodipodi:nodetypes="cc" />
    <path
       sodipodi:nodetypes="cscssc"
       style="fill:#000000;fill-opacity:1;stroke:#000000;stroke-width:0.63734597px;stroke-linecap:butt;stroke-linejoin:miter;stroke-opacity:1"
       d="m 86.275252,1009.5303 c 0,0 3.952797,-3.2499 9.796064,-3.2499 5.843264,0 9.624194,3.2499 9.624194,3.2499 0,0 -0.3482,-5.8741 -2.48483,-7.3613 -2.05332,-1.4292 -10.556988,-1.2117 -13.498213,-0.4681 -2.921633,0.7386 -3.437215,7.8294 -3.437215,7.8294 z"
       id="path4517"
       inkscape:connector-curvature="0" />
    <path
       style="fill:none;stroke:#000000;stroke-width:0.64526886;stroke-linecap:butt;stroke-linejoin:miter;stroke-miterlimit:4;stroke-opacity:1;stroke-dasharray:none"
       d="m 25.479205,1016.0787 c 0,0 0.201322,1.5297 2.315196,1.5297 2.013213,-0.153 2.214535,-1.5297 2.214535,-1.5297"
       id="path4677"
       inkscape:connector-curvature="0"
       sodipodi:nodetypes="ccc" />
    <path
       sodipodi:nodetypes="ccc"
       inkscape:connector-curvature="0"
       id="path4679"
       d="m 33.604205,1016.2037 c 0,0 0.201322,1.5297 2.315196,1.5297 2.013209,-0.153 2.214539,-1.5297 2.214539,-1.5297"
       style="fill:none;stroke:#000000;stroke-width:0.64526886;stroke-linecap:butt;stroke-linejoin:miter;stroke-miterlimit:4;stroke-opacity:1;stroke-dasharray:none" />
    <path
       sodipodi:nodetypes="ccc"
       inkscape:connector-curvature="0"
       id="path4681"
       d="m 23.467611,1023.5989 c 0,0 0.741241,3.7392 8.524268,3.7392 7.412411,-0.3739 8.153651,-3.7392 8.153651,-3.7392"
       style="fill:none;stroke:#000000;stroke-width:1.10000002;stroke-linecap:butt;stroke-linejoin:miter;stroke-miterlimit:4;stroke-opacity:1;stroke-dasharray:none" />
    <path
       style="fill:#a38200;fill-opacity:1;stroke:#000000;stroke-width:1.10000002;stroke-miterlimit:4;stroke-opacity:1;stroke-dashoffset:0"
       d="m 28.461048,1032.2096 6.717515,0 c -0.48943,4.6064 2.573328,7.955 -3.358758,7.955 -5.278462,0.8202 -3.358757,-3.8365 -3.358757,-7.955 z"
       id="rect4683"
       inkscape:connector-curvature="0"
       sodipodi:nodetypes="cccc" />
    <path
       transform="translate(0,732.36218)"
       style="fill:#a38200;fill-opacity:1;stroke:#000000;stroke-width:1.10000002;stroke-miterlimit:4;stroke-opacity:1;stroke-dashoffset:0"
       d="m 22.45064,268.73477 c 0,0 3.535534,-2.2981 9.545942,-2.12132 5.480077,0 8.485281,2.12132 8.485281,2.12132 l -2.474874,10.42983 -12.374368,0.17678 z"
       id="rect4686"
       inkscape:connector-curvature="0"
       sodipodi:nodetypes="cccccc" />
  </g>
</svg>
