<?xml version="1.0" encoding="UTF-8" standalone="no"?>
<!-- Created with Inkscape (http://www.inkscape.org/) -->

<svg
   xmlns:dc="http://purl.org/dc/elements/1.1/"
   xmlns:cc="http://creativecommons.org/ns#"
   xmlns:rdf="http://www.w3.org/1999/02/22-rdf-syntax-ns#"
   xmlns:svg="http://www.w3.org/2000/svg"
   xmlns="http://www.w3.org/2000/svg"
   xmlns:sodipodi="http://sodipodi.sourceforge.net/DTD/sodipodi-0.dtd"
   xmlns:inkscape="http://www.inkscape.org/namespaces/inkscape"
   width="640"
   height="64"
   id="svg2"
   version="1.1"
   inkscape:version="0.48.2 r9819"
   sodipodi:docname="sprites.svg">
  <defs
     id="defs4" />
  <sodipodi:namedview
     id="base"
     pagecolor="#ffffff"
     bordercolor="#666666"
     borderopacity="1.0"
     inkscape:pageopacity="0.0"
     inkscape:pageshadow="2"
     inkscape:zoom="2.8284271"
     inkscape:cx="404.70438"
     inkscape:cy="27.564971"
     inkscape:document-units="px"
     inkscape:current-layer="layer1"
     showgrid="true"
     inkscape:snap-global="false"
     inkscape:window-width="1192"
     inkscape:window-height="757"
     inkscape:window-x="63"
     inkscape:window-y="20"
     inkscape:window-maximized="0">
    <inkscape:grid
       type="xygrid"
       id="grid2985"
       empspacing="4"
       visible="true"
       enabled="true"
       snapvisiblegridlinesonly="true"
       spacingx="16px"
       spacingy="16px" />
  </sodipodi:namedview>
  <metadata
     id="metadata7">
    <rdf:RDF>
      <cc:Work
         rdf:about="">
        <dc:format>image/svg+xml</dc:format>
        <dc:type
           rdf:resource="http://purl.org/dc/dcmitype/StillImage" />
        <dc:title></dc:title>
      </cc:Work>
    </rdf:RDF>
  </metadata>
  <g
     inkscape:label="Layer 1"
     inkscape:groupmode="layer"
     id="layer1"
     transform="translate(0,-988.36218)">
    <path
       sodipodi:type="arc"
       style="fill:#ffdd55;stroke:#9a8c13;stroke-width:2;stroke-miterlimit:4;stroke-opacity:1;stroke-dasharray:none"
       id="path3825"
       sodipodi:cx="32"
       sodipodi:cy="32"
       sodipodi:rx="16"
       sodipodi:ry="16"
       d="m 48,32 a 16,16 0 1 1 -32,0 16,16 0 1 1 32,0 z"
       transform="matrix(0.94117646,0,0,-0.94117647,1.882353,1050.4798)" />
    <path
       transform="matrix(0.94117646,0,0,-0.94117647,65.882353,1050.4798)"
       d="m 48,32 a 16,16 0 1 1 -32,0 16,16 0 1 1 32,0 z"
       sodipodi:ry="16"
       sodipodi:rx="16"
       sodipodi:cy="32"
       sodipodi:cx="32"
       id="path4118"
       style="fill:#ffdd55;stroke:#9a8c13;stroke-width:2;stroke-miterlimit:4;stroke-opacity:1;stroke-dasharray:none"
       sodipodi:type="arc" />
    <path
       transform="matrix(0.94117646,0,0,-0.94117647,129.88235,1050.4798)"
       style="fill:#ffdd55;stroke:#9a8c13;stroke-width:2;stroke-miterlimit:4;stroke-opacity:1"
       d="M 47.248699,27.867845 C 48,41.212206 46.471313,48 32,48 19.78259,48 16,41.420724 16,28.619146 16.798162,22.44492 21.372876,25.036525 21.504219,22.888259 21.859023,17.085015 23.132273,16.083925 32,16 c 6.918522,-0.432862 9.29752,1.286498 9.202024,6.218543 -0.06647,3.432769 5.142197,0.433337 6.046675,5.649302 z"
       id="path4120"
       inkscape:connector-curvature="0"
       sodipodi:nodetypes="cscscsc" />
    <path
       transform="matrix(0.94117646,0,0,-0.94117647,193.88235,1050.4798)"
       d="m 48,32 a 16,16 0 1 1 -32,0 16,16 0 1 1 32,0 z"
       sodipodi:ry="16"
       sodipodi:rx="16"
       sodipodi:cy="32"
       sodipodi:cx="32"
       id="path4122"
       style="fill:#ffdd55;stroke:#9a8c13;stroke-width:2;stroke-miterlimit:4;stroke-opacity:1;stroke-dasharray:none"
       sodipodi:type="arc" />
    <path
       sodipodi:type="arc"
       style="fill:#ffdd55;stroke:#9a8c13;stroke-width:2;stroke-miterlimit:4;stroke-opacity:1;stroke-dasharray:none"
       id="path4124"
       sodipodi:cx="32"
       sodipodi:cy="32"
       sodipodi:rx="16"
       sodipodi:ry="16"
       d="m 48,32 a 16,16 0 1 1 -32,0 16,16 0 1 1 32,0 z"
       transform="matrix(0.94117646,0,0,-0.94117647,257.88235,1050.4798)" />
    <path
       style="fill:#ffffff;fill-opacity:0.53333336;stroke:#313079;stroke-width:1.97694433000000003;stroke-miterlimit:4;stroke-opacity:1"
       d="m 369.37244,1020.6869 c 0,-7.9455 -7.78422,-14.3865 -17.38653,-14.3865 -9.60232,0 -17.38653,6.441 -17.38653,14.3865 0,2.6268 0.85084,5.0893 2.33692,7.2088 0.82024,1.1699 0.86491,6.28 -5.01644,12.9342 -0.54928,0.6214 2.52851,-1.814 5.68147,-4.0827 2.67317,-1.9234 5.40037,-3.7271 6.01699,-3.4464 2.48239,1.1299 5.33428,1.7726 8.36759,1.7726 9.60231,0 17.38653,-6.441 17.38653,-14.3865 z"
       id="path4126"
       inkscape:connector-curvature="0"
       sodipodi:nodetypes="sssssssss" />
    <path
       transform="matrix(0.94117646,0,0,-0.94117647,449.88235,1050.4798)"
       d="m 48,32 a 16,16 0 1 1 -32,0 16,16 0 1 1 32,0 z"
       sodipodi:ry="16"
       sodipodi:rx="16"
       sodipodi:cy="32"
       sodipodi:cx="32"
       id="path4130"
       style="fill:#ffdd55;stroke:#9a8c13;stroke-width:2;stroke-miterlimit:4;stroke-opacity:1;stroke-dasharray:none"
       sodipodi:type="arc" />
    <path
       sodipodi:type="arc"
       style="fill:#ffdd55;stroke:#9a8c13;stroke-width:2;stroke-miterlimit:4;stroke-opacity:1;stroke-dasharray:none"
       id="path4132"
       sodipodi:cx="32"
       sodipodi:cy="32"
       sodipodi:rx="16"
       sodipodi:ry="16"
       d="m 48,32 a 16,16 0 1 1 -32,0 16,16 0 1 1 32,0 z"
       transform="matrix(0.94117646,0,0,-0.94117647,513.88235,1050.4798)" />
    <path
       transform="matrix(0.94117646,0,0,-0.94117647,577.88235,1050.4798)"
       d="m 48,32 a 16,16 0 1 1 -32,0 16,16 0 1 1 32,0 z"
       sodipodi:ry="16"
       sodipodi:rx="16"
       sodipodi:cy="32"
       sodipodi:cx="32"
       id="path4134"
       style="fill:#ffdd55;stroke:#9a8c13;stroke-width:2;stroke-miterlimit:4;stroke-opacity:1;stroke-dasharray:none"
       sodipodi:type="arc" />
    <path
       sodipodi:type="arc"
       style="fill:#000000;fill-opacity:1;stroke:none"
       id="path4167"
       sodipodi:cx="27.753941"
       sodipodi:cy="29.528543"
       sodipodi:rx="1.2374369"
       sodipodi:ry="1.2374369"
       d="m 28.991377,29.528543 a 1.2374369,1.2374369 0 1 1 -2.474873,0 1.2374369,1.2374369 0 1 1 2.474873,0 z"
       transform="translate(0,988.36218)" />
    <path
       transform="translate(8.131728,988.36218)"
       d="m 28.991377,29.528543 a 1.2374369,1.2374369 0 1 1 -2.474873,0 1.2374369,1.2374369 0 1 1 2.474873,0 z"
       sodipodi:ry="1.2374369"
       sodipodi:rx="1.2374369"
       sodipodi:cy="29.528543"
       sodipodi:cx="27.753941"
       id="path4169"
       style="fill:#000000;fill-opacity:1;stroke:none"
       sodipodi:type="arc" />
    <path
       style="fill:#ff00ff;stroke:none;stroke-width:1px;stroke-linecap:butt;stroke-linejoin:miter;stroke-opacity:1"
       d="m 26.5,39 c 0,0 1.25,-2.5 3.25,-2.5 2,0 2.25,1.75 2.25,1.75 0,0 0.75,-1.75 2.75,-1.75 2,0 2,2.5 2,2.5 0,0 -2.25,2.25 -4.75,2.25 -2.5,0 -5.5,-2.25 -5.5,-2.25 z"
       id="path4239"
       inkscape:connector-curvature="0"
       transform="translate(0,988.36218)" />
    <rect
       style="fill:#000000;fill-opacity:1;stroke:none"
       id="rect4171"
       width="11.313708"
       height="1.4142135"
       x="26.162951"
       y="38.190601"
       transform="translate(0,988.36218)" />
    <g
       id="g4207"
       transform="translate(63.5,-2)">
      <path
         sodipodi:type="arc"
         style="fill:#000000;fill-opacity:1;stroke:none"
         id="path4209"
         sodipodi:cx="15.556349"
         sodipodi:cy="28.644661"
         sodipodi:rx="4.5961943"
         sodipodi:ry="4.5961943"
         d="m 20.152543,28.644661 c 0,2.538408 -2.057786,4.596194 -4.596194,4.596194 -2.538408,0 -4.596194,-2.057786 -4.596194,-4.596194 0,-2.538408 2.057786,-4.596194 4.596194,-4.596194 2.538408,0 4.596194,2.057786 4.596194,4.596194 z"
         transform="translate(0.35355339,989.42284)" />
      <path
         transform="translate(2.4748737,982.70533)"
         d="m 20.152543,28.644661 c 0,2.538408 -2.057786,4.596194 -4.596194,4.596194 -2.538408,0 -4.596194,-2.057786 -4.596194,-4.596194 0,-2.538408 2.057786,-4.596194 4.596194,-4.596194 2.538408,0 4.596194,2.057786 4.596194,4.596194 z"
         sodipodi:ry="4.5961943"
         sodipodi:rx="4.5961943"
         sodipodi:cy="28.644661"
         sodipodi:cx="15.556349"
         id="path4211"
         style="fill:#000000;fill-opacity:1;stroke:none"
         sodipodi:type="arc" />
      <path
         sodipodi:type="arc"
         style="fill:#000000;fill-opacity:1;stroke:none"
         id="path4213"
         sodipodi:cx="15.556349"
         sodipodi:cy="28.644661"
         sodipodi:rx="4.5961943"
         sodipodi:ry="4.5961943"
         d="m 20.152543,28.644661 c 0,2.538408 -2.057786,4.596194 -4.596194,4.596194 -2.538408,0 -4.596194,-2.057786 -4.596194,-4.596194 0,-2.538408 2.057786,-4.596194 4.596194,-4.596194 2.538408,0 4.596194,2.057786 4.596194,4.596194 z"
         transform="translate(8.131728,980.23046)" />
      <path
         transform="translate(5.3033009,985.53376)"
         d="m 20.152543,28.644661 c 0,2.538408 -2.057786,4.596194 -4.596194,4.596194 -2.538408,0 -4.596194,-2.057786 -4.596194,-4.596194 0,-2.538408 2.057786,-4.596194 4.596194,-4.596194 2.538408,0 4.596194,2.057786 4.596194,4.596194 z"
         sodipodi:ry="4.5961943"
         sodipodi:rx="4.5961943"
         sodipodi:cy="28.644661"
         sodipodi:cx="15.556349"
         id="path4215"
         style="fill:#000000;fill-opacity:1;stroke:none"
         sodipodi:type="arc" />
      <path
         sodipodi:type="arc"
         style="fill:#000000;fill-opacity:1;stroke:none"
         id="path4217"
         sodipodi:cx="15.556349"
         sodipodi:cy="28.644661"
         sodipodi:rx="4.5961943"
         sodipodi:ry="4.5961943"
         d="m 20.152543,28.644661 c 0,2.538408 -2.057786,4.596194 -4.596194,4.596194 -2.538408,0 -4.596194,-2.057786 -4.596194,-4.596194 0,-2.538408 2.057786,-4.596194 4.596194,-4.596194 2.538408,0 4.596194,2.057786 4.596194,4.596194 z"
         transform="translate(3.5355339,991.19061)" />
    </g>
    <g
       transform="matrix(-1,0,0,1,127.49316,-1.9999997)"
       id="g4219">
      <path
         transform="translate(0.35355339,989.42284)"
         d="m 20.152543,28.644661 c 0,2.538408 -2.057786,4.596194 -4.596194,4.596194 -2.538408,0 -4.596194,-2.057786 -4.596194,-4.596194 0,-2.538408 2.057786,-4.596194 4.596194,-4.596194 2.538408,0 4.596194,2.057786 4.596194,4.596194 z"
         sodipodi:ry="4.5961943"
         sodipodi:rx="4.5961943"
         sodipodi:cy="28.644661"
         sodipodi:cx="15.556349"
         id="path4221"
         style="fill:#000000;fill-opacity:1;stroke:none"
         sodipodi:type="arc" />
      <path
         sodipodi:type="arc"
         style="fill:#000000;fill-opacity:1;stroke:none"
         id="path4223"
         sodipodi:cx="15.556349"
         sodipodi:cy="28.644661"
         sodipodi:rx="4.5961943"
         sodipodi:ry="4.5961943"
         d="m 20.152543,28.644661 c 0,2.538408 -2.057786,4.596194 -4.596194,4.596194 -2.538408,0 -4.596194,-2.057786 -4.596194,-4.596194 0,-2.538408 2.057786,-4.596194 4.596194,-4.596194 2.538408,0 4.596194,2.057786 4.596194,4.596194 z"
         transform="translate(2.4748737,982.70533)" />
      <path
         transform="translate(8.131728,980.23046)"
         d="m 20.152543,28.644661 c 0,2.538408 -2.057786,4.596194 -4.596194,4.596194 -2.538408,0 -4.596194,-2.057786 -4.596194,-4.596194 0,-2.538408 2.057786,-4.596194 4.596194,-4.596194 2.538408,0 4.596194,2.057786 4.596194,4.596194 z"
         sodipodi:ry="4.5961943"
         sodipodi:rx="4.5961943"
         sodipodi:cy="28.644661"
         sodipodi:cx="15.556349"
         id="path4225"
         style="fill:#000000;fill-opacity:1;stroke:none"
         sodipodi:type="arc" />
      <path
         sodipodi:type="arc"
         style="fill:#000000;fill-opacity:1;stroke:none"
         id="path4227"
         sodipodi:cx="15.556349"
         sodipodi:cy="28.644661"
         sodipodi:rx="4.5961943"
         sodipodi:ry="4.5961943"
         d="m 20.152543,28.644661 c 0,2.538408 -2.057786,4.596194 -4.596194,4.596194 -2.538408,0 -4.596194,-2.057786 -4.596194,-4.596194 0,-2.538408 2.057786,-4.596194 4.596194,-4.596194 2.538408,0 4.596194,2.057786 4.596194,4.596194 z"
         transform="translate(5.3033009,985.53376)" />
      <path
         transform="translate(3.5355339,991.19061)"
         d="m 20.152543,28.644661 c 0,2.538408 -2.057786,4.596194 -4.596194,4.596194 -2.538408,0 -4.596194,-2.057786 -4.596194,-4.596194 0,-2.538408 2.057786,-4.596194 4.596194,-4.596194 2.538408,0 4.596194,2.057786 4.596194,4.596194 z"
         sodipodi:ry="4.5961943"
         sodipodi:rx="4.5961943"
         sodipodi:cy="28.644661"
         sodipodi:cx="15.556349"
         id="path4229"
         style="fill:#000000;fill-opacity:1;stroke:none"
         sodipodi:type="arc" />
    </g>
    <path
       transform="translate(63.5,986.36218)"
       d="m 28.991377,29.528543 a 1.2374369,1.2374369 0 1 1 -2.474873,0 1.2374369,1.2374369 0 1 1 2.474873,0 z"
       sodipodi:ry="1.2374369"
       sodipodi:rx="1.2374369"
       sodipodi:cy="29.528543"
       sodipodi:cx="27.753941"
       id="path4231"
       style="fill:#000000;fill-opacity:1;stroke:none"
       sodipodi:type="arc" />
    <path
       sodipodi:type="arc"
       style="fill:#000000;fill-opacity:1;stroke:none"
       id="path4233"
       sodipodi:cx="27.753941"
       sodipodi:cy="29.528543"
       sodipodi:rx="1.2374369"
       sodipodi:ry="1.2374369"
       d="m 28.991377,29.528543 a 1.2374369,1.2374369 0 1 1 -2.474873,0 1.2374369,1.2374369 0 1 1 2.474873,0 z"
       transform="translate(71.631728,986.36218)" />
    <rect
       y="1024.5527"
       x="89.662949"
       height="1.4142135"
       width="11.313708"
       id="rect4235"
       style="fill:#000000;fill-opacity:1;stroke:none" />
    <path
       style="fill:#aa4400;stroke:none"
       d="M 12.5,42 22,38.5 C 18.55075,25.414889 20.443129,17.890436 31.5,17 c 13.48208,-0.59822 15.242962,8.28519 10,21 L 52,39 C 51.866852,22.708919 44.308935,10.392478 32,11 9,10 12.5,42 12.5,42 z"
       id="path4237"
       inkscape:connector-curvature="0"
       transform="translate(0,988.36218)"
       sodipodi:nodetypes="ccccccc" />
    <path
       style="fill:#000000;fill-opacity:1;stroke:none"
       d="m 149.44953,1006.3396 c 0,0 -6.9587,1.4852 -12.02081,10.253 -3.40037,5.8896 2.12131,10.9602 7.07106,8.4853 -2.82843,-18.3848 6.36396,-13.0815 6.36396,-15.2028 0,-2.1213 -1.41421,-3.5355 -1.41421,-3.5355 z"
       id="path4244"
       inkscape:connector-curvature="0"
       sodipodi:nodetypes="cscsc" />
    <path
       style="fill:none;stroke:#000000;stroke-width:1.9;stroke-linecap:butt;stroke-linejoin:miter;stroke-opacity:1;stroke-miterlimit:4;stroke-dasharray:none"
       d="m 150.61374,28.998214 c 3.00339,-1.003553 5.58618,-2.427698 6.71752,-5.303301"
       id="path4248"
       inkscape:connector-curvature="0"
       transform="translate(0,988.36218)"
       sodipodi:nodetypes="cc" />
    <path
       style="fill:#ff5252;stroke:none;stroke-width:1px;stroke-linecap:butt;stroke-linejoin:miter;stroke-opacity:1;fill-opacity:1"
       d="m 156.375,39.875 c 0,0 1.14832,-0.310095 3.94916,-2.280048 C 161.75,39.5 163,39.875 163,39.875 c 0,0 0.625,3 -3.125,3 -3.75,0 -3.5,-3 -3.5,-3 z"
       id="path4263"
       inkscape:connector-curvature="0"
       transform="translate(0,988.36218)" />
    <path
       style="fill:none;stroke:#9a8c13;stroke-width:1.50000000000000000;stroke-linecap:butt;stroke-linejoin:miter;stroke-opacity:1;stroke-miterlimit:4;stroke-dasharray:none"
       d="m 150.26019,39.958369 c 7.3166,0.976642 10.7135,-1.095364 9.54594,-6.717514"
       id="path4250"
       inkscape:connector-curvature="0"
       transform="translate(0,988.36218)"
       sodipodi:nodetypes="cc" />
    <path
       sodipodi:nodetypes="cc"
       inkscape:connector-curvature="0"
       id="path4252"
       d="m 169.57743,1028.6741 c -7.3166,0.9767 -10.7135,-1.0953 -9.54594,-6.7175"
       style="fill:none;stroke:#9a8c13;stroke-width:1.5;stroke-linecap:butt;stroke-linejoin:miter;stroke-miterlimit:4;stroke-opacity:1;stroke-dasharray:none" />
    <path
       style="fill:#000000;fill-opacity:1;stroke:none"
       d="m 163.94522,1019.8959 c 0,2.3995 -1.04947,0.7196 -2.01345,1.2761 -0.94076,0.5431 0.24633,2.488 -2.22919,2.613 -1.08342,-0.011 -1.10146,-1.6449 -1.86865,-2.4983 -0.82313,-0.9156 -2.35749,0.9351 -2.37399,-1.3908 0,-2.1479 1.89949,-3.8891 4.24264,-3.8891 2.34314,0 4.24264,1.7412 4.24264,3.8891 z"
       id="path4254"
       inkscape:connector-curvature="0"
       sodipodi:nodetypes="sscscss" />
    <path
       sodipodi:nodetypes="cscsc"
       inkscape:connector-curvature="0"
       id="path4259"
       d="m 170.46012,1005.8396 c 0,0 6.9587,1.4852 12.02081,10.253 3.40037,5.8896 -2.12131,10.9602 -7.07106,8.4853 2.82843,-18.3848 -6.36396,-13.0815 -6.36396,-15.2028 0,-2.1213 1.41421,-3.5355 1.41421,-3.5355 z"
       style="fill:#000000;fill-opacity:1;stroke:none" />
    <path
       sodipodi:nodetypes="cc"
       inkscape:connector-curvature="0"
       id="path4261"
       d="m 169.04591,1017.4854 c -3.00339,-1.0036 -5.58618,-2.4277 -6.71752,-5.3033"
       style="fill:none;stroke:#000000;stroke-width:1.89999998;stroke-linecap:butt;stroke-linejoin:miter;stroke-miterlimit:4;stroke-opacity:1;stroke-dasharray:none" />
    <path
       sodipodi:type="arc"
       style="fill:#000000;fill-opacity:1;stroke:none"
       id="path4265"
       sodipodi:cx="151.4375"
       sodipodi:cy="33.3125"
       sodipodi:rx="0.5625"
       sodipodi:ry="0.5625"
       d="m 152,33.3125 a 0.5625,0.5625 0 1 1 -1.125,0 0.5625,0.5625 0 1 1 1.125,0 z"
       transform="translate(0,988.36218)" />
    <path
       transform="translate(2.375,990.36218)"
       d="m 152,33.3125 a 0.5625,0.5625 0 1 1 -1.125,0 0.5625,0.5625 0 1 1 1.125,0 z"
       sodipodi:ry="0.5625"
       sodipodi:rx="0.5625"
       sodipodi:cy="33.3125"
       sodipodi:cx="151.4375"
       id="path4267"
       style="fill:#000000;fill-opacity:1;stroke:none"
       sodipodi:type="arc" />
    <path
       sodipodi:type="arc"
       style="fill:#000000;fill-opacity:1;stroke:none"
       id="path4269"
       sodipodi:cx="151.4375"
       sodipodi:cy="33.3125"
       sodipodi:rx="0.5625"
       sodipodi:ry="0.5625"
       d="m 152,33.3125 a 0.5625,0.5625 0 1 1 -1.125,0 0.5625,0.5625 0 1 1 1.125,0 z"
       transform="translate(-0.75,991.11218)" />
    <path
       transform="translate(14.75,988.86218)"
       d="m 152,33.3125 a 0.5625,0.5625 0 1 1 -1.125,0 0.5625,0.5625 0 1 1 1.125,0 z"
       sodipodi:ry="0.5625"
       sodipodi:rx="0.5625"
       sodipodi:cy="33.3125"
       sodipodi:cx="151.4375"
       id="path4271"
       style="fill:#000000;fill-opacity:1;stroke:none"
       sodipodi:type="arc" />
    <path
       sodipodi:type="arc"
       style="fill:#000000;fill-opacity:1;stroke:none"
       id="path4273"
       sodipodi:cx="151.4375"
       sodipodi:cy="33.3125"
       sodipodi:rx="0.5625"
       sodipodi:ry="0.5625"
       d="m 152,33.3125 a 0.5625,0.5625 0 1 1 -1.125,0 0.5625,0.5625 0 1 1 1.125,0 z"
       transform="translate(13.5,991.23718)" />
    <path
       transform="translate(16.5,991.36218)"
       d="m 152,33.3125 a 0.5625,0.5625 0 1 1 -1.125,0 0.5625,0.5625 0 1 1 1.125,0 z"
       sodipodi:ry="0.5625"
       sodipodi:rx="0.5625"
       sodipodi:cy="33.3125"
       sodipodi:cx="151.4375"
       id="path4275"
       style="fill:#000000;fill-opacity:1;stroke:none"
       sodipodi:type="arc" />
    <path
       sodipodi:type="arc"
       style="fill:#000000;fill-opacity:1;stroke:none"
       id="path4277"
       sodipodi:cx="27.753941"
       sodipodi:cy="29.528543"
       sodipodi:rx="1.2374369"
       sodipodi:ry="1.2374369"
       d="m 28.991377,29.528543 a 1.2374369,1.2374369 0 1 1 -2.474873,0 1.2374369,1.2374369 0 1 1 2.474873,0 z"
       transform="translate(191.75,988.11218)" />
    <path
       transform="translate(199.88173,988.11218)"
       d="m 28.991377,29.528543 a 1.2374369,1.2374369 0 1 1 -2.474873,0 1.2374369,1.2374369 0 1 1 2.474873,0 z"
       sodipodi:ry="1.2374369"
       sodipodi:rx="1.2374369"
       sodipodi:cy="29.528543"
       sodipodi:cx="27.753941"
       id="path4279"
       style="fill:#000000;fill-opacity:1;stroke:none"
       sodipodi:type="arc" />
    <rect
       style="fill:#000000;fill-opacity:1;stroke:none"
       id="rect4281"
       width="11.313708"
       height="1.4142135"
       x="217.91295"
       y="1026.3027" />
    <path
       style="fill:#5995e1;fill-opacity:1;stroke:#000000;stroke-width:1px;stroke-linecap:butt;stroke-linejoin:miter;stroke-opacity:1"
       d="m 227.5,1013.6122 c 0,0 8.25,7.5 15.5,2.25 7.25,-5.25 -1.75,-5.75 -1.75,-5.75 l -12,-0.5 z"
       id="path4287"
       inkscape:connector-curvature="0" />
    <path
       style="fill:#5995e1;stroke:#000000;stroke-width:1px;stroke-linecap:butt;stroke-linejoin:miter;stroke-opacity:1;fill-opacity:1"
       d="m 209.75,21.5 c 0,0 5,3.5 13.5,3.5 8.5,0 14.75,-3 14.75,-3 0,0 -2.75,-8.75 -14,-8.5 -11.25,0.25 -14.25,8 -14.25,8 z"
       id="path4283"
       inkscape:connector-curvature="0"
       transform="translate(0,988.36218)" />
    <g
       id="g4296">
      <path
         transform="matrix(0.73206554,0,0,0.85122317,71.898485,989.41329)"
         d="m 281.75,29.75 a 6.875,6.5 0 1 1 -13.75,0 6.875,6.5 0 1 1 13.75,0 z"
         sodipodi:ry="6.5"
         sodipodi:rx="6.875"
         sodipodi:cy="29.75"
         sodipodi:cx="274.875"
         id="path4289"
         style="fill:#f97258;fill-opacity:1;stroke:#000000;stroke-width:1.5;stroke-miterlimit:4;stroke-opacity:1;stroke-dasharray:none"
         sodipodi:type="arc" />
      <path
         transform="translate(2,998.61218)"
         d="m 271.5,22 a 3.75,2.75 0 1 1 -7.5,0 3.75,2.75 0 1 1 7.5,0 z"
         sodipodi:ry="2.75"
         sodipodi:rx="3.75"
         sodipodi:cy="22"
         sodipodi:cx="267.75"
         id="path4291"
         style="fill:#f97258;fill-opacity:1;stroke:#000000;stroke-width:1.5;stroke-miterlimit:4;stroke-opacity:1;stroke-dasharray:none"
         sodipodi:type="arc" />
      <path
         sodipodi:nodetypes="sssss"
         inkscape:connector-curvature="0"
         id="path4293"
         d="m 271.75,36.5 c 0,8.869005 -1.34315,3.469702 -3,3 -1.59403,-0.451894 -5,2.156854 -5,0.5 0,-1.656854 3.34315,-6.5 5,-6.5 1.65685,0 3,1.343146 3,3 z"
         style="fill:#f97258;fill-opacity:1;stroke:#000000;stroke-width:1.5;stroke-miterlimit:4;stroke-opacity:1"
         transform="translate(0,988.36218)" />
    </g>
    <g
       id="g4301"
       transform="matrix(-1,0,0,1,575.75,0)">
      <path
         sodipodi:type="arc"
         style="fill:#f97258;fill-opacity:1;stroke:#000000;stroke-width:1.5;stroke-miterlimit:4;stroke-opacity:1;stroke-dasharray:none"
         id="path4303"
         sodipodi:cx="274.875"
         sodipodi:cy="29.75"
         sodipodi:rx="6.875"
         sodipodi:ry="6.5"
         d="m 281.75,29.75 c 0,3.589851 -3.07804,6.5 -6.875,6.5 -3.79696,0 -6.875,-2.910149 -6.875,-6.5 0,-3.589851 3.07804,-6.5 6.875,-6.5 3.79696,0 6.875,2.910149 6.875,6.5 z"
         transform="matrix(0.73206554,0,0,0.85122317,71.898485,989.41329)" />
      <path
         sodipodi:type="arc"
         style="fill:#f97258;fill-opacity:1;stroke:#000000;stroke-width:1.5;stroke-miterlimit:4;stroke-opacity:1;stroke-dasharray:none"
         id="path4305"
         sodipodi:cx="267.75"
         sodipodi:cy="22"
         sodipodi:rx="3.75"
         sodipodi:ry="2.75"
         d="m 271.5,22 c 0,1.518783 -1.67893,2.75 -3.75,2.75 -2.07107,0 -3.75,-1.231217 -3.75,-2.75 0,-1.518783 1.67893,-2.75 3.75,-2.75 2.07107,0 3.75,1.231217 3.75,2.75 z"
         transform="translate(2,998.61218)" />
      <path
         transform="translate(0,988.36218)"
         style="fill:#f97258;fill-opacity:1;stroke:#000000;stroke-width:1.5;stroke-miterlimit:4;stroke-opacity:1"
         d="m 271.75,36.5 c 0,8.869005 -1.34315,3.469702 -3,3 -1.59403,-0.451894 -5,2.156854 -5,0.5 0,-1.656854 3.34315,-6.5 5,-6.5 1.65685,0 3,1.343146 3,3 z"
         id="path4307"
         inkscape:connector-curvature="0"
         sodipodi:nodetypes="sssss" />
    </g>
    <path
       style="fill:#f97258;fill-opacity:1;stroke:#000000;stroke-width:1px;stroke-linecap:butt;stroke-linejoin:miter;stroke-opacity:1"
       d="m 272.75,24 c 0,0 4,-10.25 14.75,-10 10.75,0.25 16.25,9.75 16.25,9.75 L 300,28 c 0,0 -11.5,-1.25 -11.75,-9 0,7.25 -12.5,10 -12.5,10 z"
       id="path4309"
       inkscape:connector-curvature="0"
       transform="translate(0,988.36218)"
       sodipodi:nodetypes="csccccc" />
    <path
       transform="translate(255.75,988.61218)"
       d="m 28.991377,29.528543 a 1.2374369,1.2374369 0 1 1 -2.474873,0 1.2374369,1.2374369 0 1 1 2.474873,0 z"
       sodipodi:ry="1.2374369"
       sodipodi:rx="1.2374369"
       sodipodi:cy="29.528543"
       sodipodi:cx="27.753941"
       id="path4324"
       style="fill:#000000;fill-opacity:1;stroke:none"
       sodipodi:type="arc" />
    <path
       sodipodi:type="arc"
       style="fill:#000000;fill-opacity:1;stroke:none"
       id="path4326"
       sodipodi:cx="27.753941"
       sodipodi:cy="29.528543"
       sodipodi:rx="1.2374369"
       sodipodi:ry="1.2374369"
       d="m 28.991377,29.528543 a 1.2374369,1.2374369 0 1 1 -2.474873,0 1.2374369,1.2374369 0 1 1 2.474873,0 z"
       transform="translate(263.88173,988.61218)" />
    <rect
       y="1026.8027"
       x="281.91296"
       height="1.4142135"
       width="11.313708"
       id="rect4328"
       style="fill:#000000;fill-opacity:1;stroke:none" />
    <path
       style="fill:#f8c6bf;fill-opacity:0.53333324;stroke:#000000;stroke-width:1.44000006000000003px;stroke-linecap:butt;stroke-linejoin:miter;stroke-opacity:1"
       d="m 417.99345,1041.563 c 0,0 -3.90051,-5.6841 -0.5261,-10.0408 3.61475,-4.667 12.45642,-10.1823 8.17983,-11.4552 -4.27658,-1.2728 -8.73984,4.2426 -8.73984,4.2426 0,0 8.23073,-20.506 4.56509,-21.7788 -3.66565,-1.2729 -7.14461,16.1221 -7.14461,16.1221 0,0 1.96858,-19.09191 -1.69705,-19.09191 -3.66565,0 -3.19049,19.09191 -3.19049,19.09191 0,0 -2.12132,-16.5463 -5.176,-16.5463 -3.0547,0 0.2885,16.9705 0.2885,16.9705 0,0 -3.29231,-13.1521 -5.73606,-11.8794 -2.44376,1.2728 2.68135,12.7279 2.68135,12.7279 0,0 -1.22189,1.2728 0,6.7883 1.2219,5.5154 3.66565,5.9396 3.66565,5.9396 0,0 -3.05472,4.6669 0,8.9095 3.0547,4.2428 12.82973,0 12.82973,0 z"
       id="path4331"
       inkscape:connector-curvature="0"
       sodipodi:nodetypes="csscscscscscscsc" />
    <path
       style="fill:none;stroke:#000000;stroke-width:1px;stroke-linecap:butt;stroke-linejoin:miter;stroke-opacity:1"
       d="m 417.193,33.594408 c 0,0 -4.66494,-0.423967 -5.97744,1.326033 -2.8125,1.8125 -1.80073,5.745035 -1.80073,5.745035"
       id="path4333"
       inkscape:connector-curvature="0"
       transform="translate(0,988.36218)"
       sodipodi:nodetypes="ccc" />
  </g>
</svg>
